<?xml version="1.0" standalone="no"?>
<!DOCTYPE svg PUBLIC "-//W3C//DTD SVG 20010904//EN"
 "http://www.w3.org/TR/2001/REC-SVG-20010904/DTD/svg10.dtd">
<svg version="1.0" xmlns="http://www.w3.org/2000/svg"
 width="2048.000000pt" height="2048.000000pt" viewBox="0 0 2048.000000 2048.000000"
 preserveAspectRatio="xMidYMid meet">

<g transform="translate(0.000000,2048.000000) scale(0.100000,-0.100000)"
fill="#000000" stroke="none">
<path d="M0 14029 l0 -6450 33 23 c17 12 100 76 182 141 83 66 195 153 250
196 114 86 406 316 594 467 70 55 208 162 308 237 100 75 184 141 188 147 3 5
12 10 20 10 11 0 14 -394 14 -2488 1 -2756 -4 -2547 67 -2663 56 -94 174 -189
283 -230 128 -48 211 -40 661 65 l275 63 6 -196 c9 -276 10 -855 2 -988 l-6
-112 -31 -11 c-17 -5 -256 -66 -531 -135 -275 -69 -531 -135 -570 -146 -84
-24 -206 -67 -214 -74 -16 -17 65 -55 331 -154 539 -201 912 -324 988 -325 71
-1 792 185 820 211 3 3 7 1038 10 2301 l5 2296 215 58 c258 70 751 191 1175
288 471 107 668 152 830 190 94 22 258 60 365 84 460 105 1041 238 1115 256
142 35 722 167 985 225 469 102 753 167 935 212 99 24 349 82 555 128 409 92
948 214 1075 245 44 10 181 42 305 70 297 67 326 74 525 120 275 65 607 140
616 140 5 0 9 -980 9 -2304 0 -1838 -3 -2306 -13 -2314 -16 -14 -148 -46 -557
-137 -113 -25 -281 -63 -375 -85 -93 -22 -375 -85 -625 -140 -250 -55 -502
-112 -560 -126 -113 -27 -397 -92 -790 -180 -135 -30 -391 -88 -570 -129 -179
-40 -408 -92 -510 -115 -102 -23 -252 -57 -335 -76 -82 -19 -260 -59 -395 -89
-562 -125 -1309 -297 -1657 -381 -203 -49 -282 -72 -312 -92 -209 -139 -675
-482 -906 -667 -600 -482 -844 -782 -986 -1219 -27 -81 -49 -154 -49 -162 0
-12 1218 -14 8365 -14 l8365 0 0 9590 c0 5275 -3 9590 -6 9590 -3 0 -89 -69
-191 -152 -102 -84 -211 -174 -242 -199 -67 -55 -644 -514 -860 -684 -399
-315 -642 -509 -819 -653 l-192 -157 0 -3274 c0 -1801 -2 -3276 -4 -3278 -2
-3 -55 14 -118 37 l-113 41 -310 -70 c-170 -38 -497 -113 -725 -167 -228 -53
-451 -105 -495 -115 -207 -46 -989 -230 -1170 -274 -55 -13 -219 -52 -365 -86
-680 -157 -770 -178 -847 -198 -45 -12 -84 -21 -88 -21 -3 0 -5 1667 -4 3704
1 2771 4 3709 13 3719 6 8 83 31 171 51 183 41 742 162 950 206 77 16 190 41
250 55 61 14 171 39 245 56 74 16 250 56 390 89 140 32 370 84 510 115 140 31
291 64 335 75 351 83 424 100 1070 245 138 31 261 60 275 64 l25 8 -1 164 c0
98 -5 185 -13 216 -16 67 -81 167 -123 192 -18 11 -40 26 -48 33 -13 11 -12
13 7 16 27 4 218 201 322 332 227 284 388 585 495 925 29 91 66 241 66 268 0
16 -456 17 -9435 17 l-9435 0 0 -6451z m3970 5541 c40 -22 36 -116 -6 -126
-42 -11 -91 4 -98 29 -9 35 4 95 23 100 30 8 62 7 81 -3z m-2650 -65 l0 -55
-130 0 -131 0 3 -62 3 -63 113 -3 c80 -2 112 -6 112 -15 0 -7 3 -29 6 -49 l7
-38 -117 0 c-112 0 -116 -1 -121 -22 -3 -13 -2 -41 3 -63 l8 -40 127 0 127 0
0 -57 0 -57 -191 -3 c-105 -2 -193 -1 -195 1 -2 2 -4 134 -4 293 l0 288 190 0
190 0 0 -55z m383 44 c121 -33 175 -178 106 -283 -17 -26 -44 -53 -60 -62 -16
-8 -29 -18 -29 -22 0 -5 28 -48 61 -98 34 -49 64 -95 66 -101 4 -10 -14 -13
-71 -13 l-76 0 -44 88 c-50 101 -64 115 -103 110 -31 -3 -30 1 -32 -108 l-1
-80 -58 0 -59 0 -6 200 c-4 110 -4 241 0 290 l6 90 131 0 c72 0 148 -5 169
-11z m524 -8 c112 -51 146 -206 67 -301 -41 -48 -80 -63 -174 -70 l-85 -5 0
-90 0 -90 -61 -3 -61 -3 -6 107 c-9 140 -9 459 0 467 3 4 67 7 142 7 112 0
143 -4 178 -19z m694 8 c102 -34 162 -175 114 -269 -46 -92 -95 -120 -210
-120 l-85 0 0 -85 c0 -47 -3 -85 -7 -86 -5 0 -31 -3 -59 -5 l-51 -4 -7 47 c-3
25 -6 155 -6 289 l0 244 139 0 c76 0 153 -5 172 -11z m2119 -104 l0 -55 49 0
c44 0 50 -3 53 -22 2 -13 2 -33 0 -45 -4 -20 -10 -23 -52 -23 -27 0 -50 -4
-52 -10 -1 -5 -1 -54 2 -107 l5 -98 48 2 47 3 0 -50 c0 -45 -3 -52 -26 -60
-61 -24 -147 0 -173 48 -5 10 -13 71 -17 135 l-7 117 -33 0 -34 0 0 50 c0 43
3 50 19 50 39 0 47 9 43 50 -6 64 0 70 68 70 l60 0 0 -55z m-1842 -77 c4 -34
12 -35 42 -3 19 20 33 25 72 25 l48 0 0 -39 c0 -47 -8 -71 -24 -71 -18 0 -80
-19 -96 -30 -12 -7 -16 -38 -20 -137 l-5 -128 -55 0 -55 0 -3 208 -2 208 47
-3 c44 -3 48 -5 51 -30z m516 -16 c88 -61 118 -202 60 -284 -90 -129 -296
-120 -363 15 -49 99 -25 215 57 270 77 52 171 52 246 -1z m260 42 c14 -5 16
-35 16 -231 0 -308 -9 -338 -108 -350 -84 -10 -109 32 -52 89 l30 30 0 227 c0
125 3 231 7 234 8 9 86 9 107 1z m320 -3 c73 -17 133 -100 143 -197 l6 -53
-132 6 c-124 6 -131 5 -131 -13 0 -25 10 -38 38 -53 24 -13 63 -9 146 15 59
17 75 8 60 -33 -5 -16 -31 -42 -58 -60 -40 -28 -58 -33 -105 -33 -85 0 -125
15 -165 62 -76 88 -72 226 9 304 56 55 115 72 189 55z m471 -11 c34 -13 40
-33 25 -81 -14 -42 -38 -51 -60 -24 -29 35 -97 10 -126 -47 -20 -39 -12 -84
23 -120 33 -35 88 -38 123 -8 13 11 37 20 55 20 27 0 34 -5 39 -26 5 -17 1
-35 -9 -51 -19 -28 -108 -73 -146 -73 -42 0 -122 29 -151 54 -63 56 -86 154
-54 230 17 40 82 115 111 126 28 12 139 12 170 0z m12918 -256 c20 -10 37 -21
37 -24 0 -4 -42 -10 -92 -13 -84 -5 -183 -25 -508 -102 -58 -14 -319 -72 -580
-130 -261 -57 -549 -121 -640 -141 -217 -48 -346 -76 -570 -125 -102 -22 -230
-51 -285 -64 -55 -13 -221 -51 -370 -84 -148 -33 -328 -74 -400 -91 -121 -29
-344 -78 -1400 -311 -225 -50 -486 -108 -580 -129 -93 -22 -273 -62 -400 -89
-126 -28 -311 -69 -410 -92 -339 -77 -710 -160 -845 -189 -341 -73 -464 -100
-590 -128 -74 -17 -223 -49 -330 -72 -107 -23 -238 -53 -290 -66 -116 -28
-564 -126 -680 -149 -47 -9 -132 -27 -190 -40 -58 -13 -220 -49 -360 -80 -140
-30 -264 -58 -275 -60 -11 -3 -148 -32 -305 -65 -245 -52 -543 -116 -765 -165
-125 -27 -393 -86 -475 -105 -47 -10 -161 -35 -255 -55 -93 -20 -260 -56 -370
-80 -447 -98 -834 -182 -1270 -276 -253 -55 -579 -126 -725 -159 -595 -133
-1228 -272 -1280 -281 -30 -5 -73 -14 -95 -19 -22 -5 -101 -23 -176 -39 -75
-17 -174 -44 -220 -61 -236 -88 -265 -92 -192 -23 82 78 251 132 643 204 30 6
192 42 360 80 168 39 350 79 405 89 55 10 244 51 420 90 176 40 347 78 380 85
33 7 177 39 320 70 301 66 438 96 885 193 179 39 384 84 456 101 71 16 197 43
280 60 239 49 464 97 679 146 110 25 220 50 245 55 25 5 230 49 455 99 226 49
565 123 755 165 190 41 415 91 500 110 85 19 265 58 400 86 135 28 362 79 505
111 143 33 321 73 395 89 74 16 275 59 445 95 290 61 552 120 960 215 94 22
328 73 520 115 193 42 409 89 480 106 72 16 191 43 265 59 74 16 176 39 225
50 50 11 205 45 345 76 228 49 647 143 865 194 319 74 556 127 780 175 143 31
285 62 315 70 30 8 206 48 391 89 185 41 356 80 380 85 24 6 199 44 389 85
346 75 532 116 905 202 401 91 457 97 538 58z m-14833 -579 c0 -88 3 -115 13
-115 7 0 18 5 24 11 5 5 34 13 64 15 48 5 59 2 100 -24 136 -88 128 -304 -13
-378 -40 -21 -117 -18 -161 6 l-39 21 -5 -21 c-4 -16 -13 -20 -49 -20 -23 0
-45 3 -47 8 -3 4 -8 143 -12 310 l-7 302 66 0 66 0 0 -115z m1930 -190 l0
-305 -49 0 c-28 0 -52 4 -56 9 -3 6 -19 4 -40 -5 -54 -22 -122 -18 -171 11
-87 51 -126 206 -76 301 38 75 165 117 232 79 14 -8 28 -14 33 -15 4 0 7 49 7
109 l0 110 53 4 c28 2 55 4 60 5 4 1 7 -135 7 -303z m-2390 176 l0 -119 37 19
c56 28 124 25 163 -7 57 -48 64 -74 65 -229 l0 -140 -57 -3 -58 -3 0 115 c0
112 -9 163 -33 178 -13 9 -72 0 -99 -14 -16 -8 -18 -25 -18 -143 l0 -135 -60
0 -60 0 0 263 c0 144 -3 279 -6 300 l-7 37 67 0 66 0 0 -119z m-1120 69 c55
-28 95 -72 131 -145 29 -59 31 -71 27 -137 -5 -85 -27 -137 -80 -190 -61 -61
-93 -70 -270 -76 l-158 -4 0 285 0 286 58 4 c111 8 253 -3 292 -23z m16380
-75 c0 -67 -3 -85 -14 -85 -11 0 -13 9 -9 35 3 19 1 35 -4 35 -14 0 -39 -22
-51 -45 -11 -20 -11 -20 -12 1 0 11 9 29 19 38 17 16 28 38 45 89 3 9 10 17
16 17 6 0 10 -33 10 -85z m-110 -3 c0 -15 -2 -15 -10 -2 -13 20 -13 33 0 25 6
-3 10 -14 10 -23z m-355 -54 c-4 -13 -9 -32 -13 -43 -3 -11 -5 -27 -3 -37 3
-24 -18 -32 -38 -14 -10 9 -23 16 -30 16 -25 0 -4 25 25 30 22 4 31 13 39 38
5 17 13 32 18 32 4 0 5 -10 2 -22z m288 -38 c-6 -6 -33 30 -33 44 0 6 9 0 20
-14 10 -14 16 -27 13 -30z m-15685 -3 c17 -16 35 -48 41 -70 8 -32 15 -228 12
-302 -1 -6 -26 -11 -56 -12 -50 -1 -56 1 -61 23 -8 31 -18 30 -38 -1 -14 -21
-24 -25 -69 -25 -67 0 -131 42 -141 91 -8 43 10 106 41 136 24 25 29 25 114
21 87 -5 89 -5 89 17 0 48 -65 72 -128 46 -17 -7 -41 -11 -54 -9 -20 3 -23 9
-23 43 0 36 4 42 35 58 28 14 54 17 122 15 80 -3 89 -5 116 -31z m388 12 c8
-9 17 -32 17 -50 l2 -34 -86 3 c-71 3 -87 1 -92 -12 -6 -15 26 -46 48 -46 23
0 132 -59 138 -75 14 -35 7 -97 -14 -126 -33 -47 -68 -59 -169 -59 -105 0
-130 14 -130 75 0 47 16 52 96 30 72 -19 114 -14 114 14 0 24 -17 37 -60 45
-51 9 -128 61 -136 91 -11 42 4 90 39 122 43 41 50 43 139 40 56 -1 82 -7 94
-18z m1323 1 c72 -36 121 -120 121 -207 0 -48 -46 -128 -92 -159 -35 -25 -53
-30 -117 -32 -65 -3 -83 0 -121 21 -25 13 -58 43 -75 66 -26 37 -30 51 -30
109 1 97 40 163 120 205 44 23 146 22 194 -3z m449 -10 c23 -16 46 -38 51 -49
6 -10 12 -90 13 -178 l3 -158 -52 -3 c-44 -3 -52 0 -58 18 -7 24 -23 26 -31 5
-17 -43 -146 -38 -192 9 -36 35 -43 120 -13 157 32 41 83 61 151 58 33 -1 63
1 67 4 3 4 0 18 -7 32 -18 34 -68 49 -117 36 -72 -20 -83 -16 -83 29 0 37 4
42 33 55 18 8 66 14 113 15 74 0 84 -2 122 -30z m232 11 c0 -33 22 -36 42 -8
17 23 27 27 69 27 44 0 49 -2 49 -22 0 -13 -9 -42 -20 -65 -16 -37 -23 -43
-49 -43 -53 0 -61 -8 -61 -60 0 -26 -3 -88 -6 -138 l-7 -92 -53 0 -54 0 0 210
0 210 45 0 c38 0 45 -3 45 -19z m12650 -52 c-11 -36 -17 -45 -26 -36 -9 9 16
78 26 72 5 -3 4 -19 0 -36z m380 -36 c0 -10 -5 -25 -10 -33 -7 -11 -10 -7 -10
18 0 17 5 32 10 32 6 0 10 -8 10 -17z m-445 -33 c3 -5 2 -10 -4 -10 -5 0 -13
5 -16 10 -3 6 -2 10 4 10 5 0 13 -4 16 -10z m110 -30 c3 -5 -1 -10 -9 -10 -9
0 -16 5 -16 10 0 6 4 10 9 10 6 0 13 -4 16 -10z m-60 -20 c-20 -22 -31 -20
-22 5 4 8 14 15 23 15 16 0 16 -2 -1 -20z m-1544 -322 c15 -17 17 -24 6 -36
-10 -13 -12 -13 -15 4 -2 10 -8 23 -13 29 -10 10 -12 25 -3 25 4 0 15 -10 25
-22z m-71 3 c0 -5 8 -8 18 -7 12 1 17 -6 17 -23 0 -31 -25 -40 -32 -12 -8 30
-21 26 -15 -4 3 -20 0 -25 -16 -25 -11 0 -22 8 -25 20 -3 11 -2 18 2 15 5 -2
14 7 21 20 13 25 30 34 30 16z m-249 -43 c21 -26 25 -54 7 -60 -7 -3 -18 11
-25 31 -20 58 -15 67 18 29z m181 -8 c4 -24 1 -30 -11 -28 -21 4 -28 58 -8 58
9 0 17 -13 19 -30z m-64 -9 c6 -38 -15 -49 -28 -15 -9 22 -13 25 -20 14 -6 -8
-10 -23 -10 -32 0 -28 -19 -21 -26 9 -5 19 -2 30 12 40 29 21 68 13 72 -16z
m-150 -35 c-4 -34 -19 -36 -35 -5 -11 20 -10 26 4 37 22 16 35 2 31 -32z
m-224 8 c16 -23 17 -29 5 -51 -13 -24 -66 -54 -81 -46 -14 8 -8 21 12 26 12 3
19 13 18 24 -6 73 12 92 46 47z m109 12 c15 -8 27 -11 27 -5 0 5 7 9 15 9 15
0 22 -50 9 -62 -12 -13 -43 5 -48 28 -7 27 -31 32 -40 8 -10 -26 -7 -34 14
-34 11 0 20 -4 20 -10 0 -5 -16 -10 -35 -10 -31 0 -35 3 -35 26 0 31 17 64 33
64 7 0 24 -7 40 -14z m-473 -64 c0 -4 -9 -13 -20 -20 -22 -13 -27 -3 -8 16 14
14 28 16 28 4z m20 -76 c0 -20 -19 -31 -32 -18 -6 6 -7 15 -4 21 10 16 36 13
36 -3z m-1090 -1051 c17 -20 5 -58 -22 -70 -12 -5 -25 -21 -29 -35 -4 -14 -7
-18 -8 -10 -1 24 11 60 19 55 4 -2 15 1 24 8 21 15 12 45 -18 57 l-21 9 21 0
c12 1 27 -6 34 -14z m-91 -18 c-19 -12 -35 -33 -37 -45 -3 -18 2 -22 25 -23
l28 -2 -27 -4 c-21 -3 -28 -10 -28 -27 0 -33 19 -46 66 -46 35 0 46 5 63 28
14 18 20 22 21 11 0 -29 -25 -47 -77 -53 -46 -6 -53 -4 -67 16 -24 35 -21 116
6 145 12 13 30 23 41 23 16 0 13 -5 -14 -23z m-503 -152 c9 -14 14 -29 10 -32
-4 -4 -9 2 -12 14 -9 35 -31 35 -59 0 -13 -18 -25 -27 -25 -21 0 18 40 64 55
64 8 0 22 -11 31 -25z m15 -55 c32 -18 25 -67 -13 -90 -18 -11 -40 -20 -48
-20 -8 0 1 10 20 21 60 37 66 62 18 83 -21 9 -27 15 -15 15 10 1 27 -4 38 -9z
m-123 -35 c-11 -25 -10 -29 17 -51 17 -13 24 -24 18 -24 -15 0 -53 36 -53 50
0 13 23 61 27 56 2 -2 -2 -16 -9 -31z m-458 -25 c0 -5 -15 -10 -34 -10 -19 0
-43 -3 -53 -6 -12 -5 -15 -4 -8 4 17 18 95 28 95 12z m10 -55 c0 -29 -4 -36
-25 -41 -35 -9 -44 3 -11 15 19 8 26 18 26 36 0 14 2 25 5 25 3 0 5 -16 5 -35z
m0 -74 c0 -33 -23 -61 -48 -61 -14 1 -14 3 3 12 26 15 35 28 35 56 0 12 2 22
5 22 3 0 5 -13 5 -29z m-81 -69 c-14 -5 -39 6 -39 17 0 5 11 4 25 -2 13 -7 20
-14 14 -15z m-259 -767 c0 -8 -7 -15 -15 -15 -8 0 -15 7 -15 15 0 8 7 15 15
15 8 0 15 -7 15 -15z m-122 -25 c3 -21 2 -22 -12 -11 -19 16 -21 44 -3 39 6
-3 14 -15 15 -28z m62 10 c-12 -23 -30 -27 -30 -7 0 17 10 27 27 27 11 0 11
-5 3 -20z m-160 -42 c0 -4 -7 -8 -15 -8 -10 0 -15 10 -15 28 1 26 1 26 15 8 8
-11 15 -23 15 -28z m48 24 c2 -7 -3 -12 -12 -12 -9 0 -16 7 -16 16 0 17 22 14
28 -4z m-174 -1 c4 -5 -3 -7 -14 -4 -23 6 -26 13 -6 13 8 0 17 -4 20 -9z m3
-30 c16 13 17 13 4 -3 -17 -22 -61 -24 -61 -3 0 12 3 13 19 3 15 -9 23 -9 38
3z m-197 -10 c0 -13 -26 -32 -33 -24 -8 7 11 33 24 33 5 0 9 -4 9 -9z m-78
-27 c-24 -17 -39 -14 -27 5 3 6 16 11 28 11 l21 0 -22 -16z m-7642 -8 c0 -15
-18 -31 -26 -23 -7 7 7 37 17 37 5 0 9 -6 9 -14z m7583 -1 c1 -5 -6 -11 -15
-13 -11 -2 -18 3 -18 13 0 17 30 18 33 0z m-7635 -19 c3 -12 -1 -17 -10 -14
-7 3 -15 13 -16 22 -3 12 1 17 10 14 7 -3 15 -13 16 -22z m7572 -1 c-16 -19
-30 -19 -30 -1 0 8 8 16 18 18 24 6 27 1 12 -17z m-7710 8 c0 -4 -16 -21 -36
-40 -47 -42 -68 -31 -23 12 32 31 59 44 59 28z m90 -19 c0 -31 -23 -28 -28 4
-2 15 2 22 12 22 11 0 16 -9 16 -26z m7520 17 c0 -21 -13 -41 -26 -41 -17 0
-17 5 -4 31 11 20 30 26 30 10z m50 -5 c0 -8 -4 -17 -9 -21 -12 -7 -24 12 -16
25 9 15 25 12 25 -4z m-7629 -37 c-26 -21 -41 -24 -41 -9 0 6 6 10 14 10 7 0
16 10 20 22 4 19 8 20 18 10 11 -11 9 -17 -11 -33z m7529 31 c0 -5 -7 -10 -15
-10 -8 0 -15 5 -15 10 0 6 7 10 15 10 8 0 15 -4 15 -10z m-7750 -10 c0 -5 -7
-10 -16 -10 -8 0 -12 5 -9 10 3 6 10 10 16 10 5 0 9 -4 9 -10z m80 -21 c0 -25
-3 -30 -16 -25 -9 4 -27 -1 -40 -9 -23 -14 -24 -14 -24 5 0 11 7 20 15 20 8 0
23 9 32 20 24 28 33 25 33 -11z m7630 -5 c0 -8 -4 -12 -10 -9 -5 3 -10 10 -10
16 0 5 5 9 10 9 6 0 10 -7 10 -16z m-3850 -58 c-4 -12 -15 -23 -24 -24 -15 -3
-16 0 -7 16 6 11 7 22 3 26 -3 4 0 11 8 16 19 12 30 -7 20 -34z m-50 5 c0 -17
-6 -31 -16 -35 -24 -9 -24 -9 -24 29 0 28 4 35 20 35 15 0 20 -7 20 -29z
m-4632 -16 c-8 -18 -8 -32 2 -55 11 -27 17 -31 42 -28 37 6 47 -9 14 -21 -16
-7 -26 -19 -28 -36 -4 -37 -24 -30 -20 7 2 31 -19 76 -45 91 -19 11 -16 26 9
52 27 28 41 23 26 -10z m4574 -10 c-14 -31 -30 -32 -42 -2 l-9 22 0 -22 c-1
-30 -21 -40 -38 -17 -13 18 -14 18 -19 -4 -4 -13 -14 -22 -26 -22 -14 0 -18 5
-14 16 3 9 6 22 6 30 0 8 11 14 28 15 15 0 45 6 67 13 48 15 63 6 47 -29z
m-162 -26 c0 -10 -7 -19 -15 -19 -15 0 -21 31 -9 43 11 10 24 -3 24 -24z
m3760 16 c0 -8 -7 -15 -16 -15 -14 0 -14 3 -4 15 7 8 14 15 16 15 2 0 4 -7 4
-15z m-50 -14 c0 -12 -28 -22 -34 -12 -3 5 -3 11 1 15 9 9 33 7 33 -3z m-3776
-17 c19 -19 12 -34 -15 -34 -11 0 -33 -7 -48 -15 -26 -13 -30 -13 -42 1 -11
14 -15 13 -30 -7 l-17 -24 -7 28 c-12 45 47 79 60 36 8 -25 29 -20 33 9 4 27
43 30 66 6z m3716 5 c0 -11 -38 -22 -50 -14 -18 11 -10 20 20 21 17 1 30 -2
30 -7z m-80 -14 c0 -8 -7 -15 -15 -15 -16 0 -20 12 -8 23 11 12 23 8 23 -8z
m-70 -10 c14 -16 10 -18 -14 -9 -9 3 -16 10 -16 15 0 14 16 11 30 -6z m-3751
-36 c1 -30 -2 -40 -11 -36 -12 4 -14 36 -3 65 8 21 11 14 14 -29z m3646 33
c13 -9 19 -42 7 -42 -12 0 -32 22 -32 37 0 14 10 17 25 5z m65 -17 c0 -8 -6
-15 -14 -15 -20 0 -29 17 -14 23 22 9 28 7 28 -8z m-168 -25 c10 -18 13 -30 6
-30 -13 0 -37 30 -38 48 0 21 14 13 32 -18z m68 10 c0 -11 -7 -20 -15 -20 -15
0 -21 21 -8 33 12 13 23 7 23 -13z m-7805 -20 c-3 -5 -10 -10 -16 -10 -5 0 -9
5 -9 10 0 6 7 10 16 10 8 0 12 -4 9 -10z m3563 -23 c4 -30 5 -31 33 -17 24 14
38 -12 19 -35 -10 -12 -10 -21 -1 -41 18 -40 13 -52 -24 -64 -52 -17 -65 -8
-65 45 0 39 -3 46 -17 43 -13 -2 -20 -16 -24 -45 -6 -46 -20 -68 -49 -76 -28
-7 -50 13 -56 54 -9 51 5 62 124 95 6 2 12 16 12 32 0 16 3 32 7 36 15 14 38
0 41 -27z m180 -61 c0 -59 -1 -64 -25 -75 -30 -14 -63 -6 -63 15 0 8 10 14 25
14 14 0 25 4 25 9 0 5 -11 12 -25 15 -15 4 -26 14 -26 26 -1 11 -2 26 -3 33
-1 13 62 37 80 30 6 -2 11 -32 12 -67z m-558 4 c0 -24 -26 -38 -42 -22 -16 16
-2 42 22 42 13 0 20 -7 20 -20z m154 -46 c9 -9 16 -32 16 -54 0 -47 -33 -76
-74 -66 -66 16 -75 86 -16 117 42 23 54 24 74 3z m-128 -16 c4 -6 -1 -17 -11
-24 -12 -9 -16 -20 -11 -38 3 -15 11 -26 16 -26 16 0 12 -27 -5 -34 -29 -11
-45 5 -45 46 0 32 -3 39 -17 36 -14 -2 -19 -15 -21 -51 -3 -39 -6 -48 -20 -45
-14 3 -16 13 -13 53 4 60 14 75 52 75 16 0 29 5 29 10 0 14 37 13 46 -2z
m6160 -15 c-10 -10 -19 5 -10 18 6 11 8 11 12 0 2 -7 1 -15 -2 -18z m-6498 1
c12 -8 29 -28 37 -44 l15 -29 29 30 c35 35 74 38 95 7 17 -24 21 -65 8 -84 -4
-6 -20 -14 -37 -17 -16 -3 -40 -8 -52 -12 -19 -6 -25 -2 -37 26 l-14 34 -7
-28 c-9 -35 -52 -65 -107 -75 -67 -13 -68 -12 -68 93 0 79 3 96 18 104 26 16
95 13 120 -5z m-243 -63 c3 -6 -4 -19 -16 -30 -27 -25 -31 -89 -6 -102 25 -14
21 -38 -8 -45 -50 -12 -53 -4 -68 146 -2 20 4 26 28 31 46 10 63 10 70 0z
m-125 -38 c0 -13 -14 -28 -42 -45 -50 -32 -45 -88 9 -88 18 0 24 -5 21 -17 -5
-28 -72 -30 -105 -3 l-27 21 -19 -26 c-20 -27 -66 -55 -92 -55 -27 0 -55 38
-55 74 0 46 26 74 76 82 34 5 46 2 63 -15 12 -12 22 -21 24 -21 2 0 27 23 57
50 48 44 90 64 90 43z m-2372 -20 c2 -7 -5 -16 -15 -19 -10 -3 -26 -10 -36
-15 -20 -11 -33 10 -23 37 7 18 67 16 74 -3z m2022 -3 c0 -19 -20 -27 -33 -13
-8 7 11 33 24 33 5 0 9 -9 9 -20z m-2126 -7 c13 -33 -13 -80 -52 -96 -42 -17
-52 -14 -52 14 0 16 3 17 19 7 26 -16 71 4 71 31 0 29 -15 34 -49 16 -35 -18
-41 -18 -41 -5 0 10 67 49 86 50 7 0 15 -7 18 -17z m74 -70 c2 -8 -6 -13 -22
-13 -19 0 -24 4 -19 15 6 18 34 16 41 -2z m2054 -43 c-8 -130 -27 -200 -53
-185 -10 7 2 219 13 233 6 7 18 11 27 10 13 -3 15 -14 13 -58z m-430 39 c24
-10 58 -60 58 -83 0 -21 -35 -47 -82 -60 -39 -12 -43 -17 -46 -47 -2 -19 -8
-38 -13 -44 -19 -20 -29 21 -29 123 0 97 1 103 23 112 30 12 62 12 89 -1z
m337 -35 c29 -36 27 -79 -4 -110 -20 -20 -33 -25 -67 -22 -35 3 -45 8 -61 36
-17 28 -17 37 -7 63 26 63 102 81 139 33z m-159 -4 c0 -6 -9 -18 -20 -27 -16
-14 -20 -30 -20 -80 0 -35 -4 -63 -10 -63 -15 0 -38 41 -48 86 -8 37 -7 45 15
68 24 26 83 37 83 16z m-431 -26 c27 -34 26 -60 -1 -100 -23 -33 -56 -54 -84
-54 -10 0 -13 -6 -9 -19 7 -22 -18 -46 -40 -37 -13 5 -15 24 -13 113 3 105 4
107 28 114 57 16 98 10 119 -17z m-1339 -13 c0 -14 -5 -18 -19 -14 -12 3 -25
-5 -39 -21 -11 -14 -21 -26 -23 -26 -2 0 -5 14 -6 32 -3 37 9 48 55 48 25 0
32 -4 32 -19z m-122 -13 c18 -18 15 -84 -4 -103 -10 -10 -29 -15 -48 -13 l-31
3 4 55 c2 30 5 58 8 63 7 11 58 8 71 -5z m1249 -10 c30 -28 31 -85 2 -121
l-20 -27 26 -45 27 -45 -23 0 c-13 0 -39 16 -60 36 -40 39 -65 38 -55 -2 8
-29 -9 -64 -29 -64 -8 0 -15 4 -15 10 0 5 -2 63 -5 129 -5 124 -3 133 40 144
49 12 89 6 112 -15z m7773 -2053 l0 -2074 -37 -10 c-59 -16 -386 -82 -389 -79
-2 3 -7 3731 -5 3991 1 88 4 110 19 125 10 10 86 36 172 60 193 52 223 60 233
61 4 1 7 -933 7 -2074z m-8908 2013 c-7 -7 -12 -8 -12 -2 0 14 12 26 19 19 2
-3 -1 -11 -7 -17z m936 -5 c-2 -11 -21 -22 -51 -31 -40 -11 -47 -17 -47 -39 0
-24 2 -25 46 -18 57 8 57 -10 1 -40 -26 -14 -37 -27 -37 -44 0 -17 4 -22 16
-17 9 3 33 9 55 12 40 7 50 -4 30 -34 -7 -12 -139 -37 -148 -28 -3 2 -7 58
-10 125 l-6 120 34 4 c19 2 53 5 77 5 36 2 43 -1 40 -15z m8662 -12 c0 -16
-12 -41 -20 -41 -4 0 -5 11 -2 25 4 23 22 36 22 16z m-9615 -21 c-3 -5 -15
-10 -26 -10 -10 0 -19 5 -19 10 0 6 12 10 26 10 14 0 23 -4 19 -10z m9565 -16
c0 -8 -7 -14 -15 -14 -8 0 -15 9 -15 20 0 13 5 18 15 14 8 -4 15 -12 15 -20z
m-130 -3 c5 -11 10 -24 10 -30 0 -17 -17 -13 -24 7 -3 9 -9 23 -12 30 -9 20
14 14 26 -7z m52 -8 c-2 -12 -8 -20 -13 -17 -14 8 -11 41 4 41 9 0 12 -9 9
-24z m-92 -24 c0 -10 -4 -19 -10 -19 -5 0 -10 12 -10 26 0 14 4 23 10 19 6 -3
10 -15 10 -26z m-1087 -116 c-74 -72 -88 -94 -71 -111 13 -13 6 -16 -72 -31
-134 -26 -195 -30 -259 -19 -68 13 -77 21 -62 59 8 24 22 28 203 64 184 36
243 56 297 97 52 40 31 4 -36 -59z m42 -75 c-14 -24 -34 -58 -42 -75 -9 -18
-20 -33 -25 -33 -10 0 -10 0 3 41 10 28 74 109 87 109 2 0 -9 -19 -23 -42z
m-96 -106 c7 -12 10 -694 11 -1930 l0 -1910 -92 -21 c-163 -37 -333 -69 -337
-65 -3 2 -6 773 -8 1712 -2 939 -4 1811 -6 1939 l-3 231 100 11 c203 23 281
34 291 42 15 14 34 10 44 -9z m-8239 -17 c0 -8 -4 -15 -9 -15 -13 0 -22 16
-14 24 11 11 23 6 23 -9z m-55 -18 c0 -26 -20 -25 -23 2 -3 16 1 22 10 19 7
-3 13 -12 13 -21z m-55 0 c0 -14 -35 -39 -44 -30 -7 7 23 43 36 43 4 0 8 -6 8
-13z m-75 -17 c-2 -31 -15 -37 -15 -7 0 15 4 27 8 27 5 0 8 -9 7 -20z m7970 0
c-3 -5 -13 -10 -21 -10 -8 0 -12 5 -9 10 3 6 13 10 21 10 8 0 12 -4 9 -10z
m1979 -33 c-3 -9 -12 -17 -20 -17 -17 0 -17 5 -3 32 13 24 33 10 23 -15z
m-118 -24 c-11 -11 -19 6 -11 24 8 17 8 17 12 0 3 -10 2 -21 -1 -24z m62 20
c-5 -25 -28 -28 -28 -4 0 12 6 21 16 21 9 0 14 -7 12 -17z m-98 -20 c0 -20
-24 -11 -28 10 -2 12 1 15 12 11 9 -3 16 -13 16 -21z m-120 -3 c0 -5 -4 -10
-10 -10 -5 0 -10 5 -10 10 0 6 5 10 10 10 6 0 10 -4 10 -10z m70 -15 c0 -15
-6 -25 -14 -25 -7 0 -16 11 -18 25 -4 19 -1 25 13 25 14 0 19 -7 19 -25z
m-138 -7 c6 -17 -1 -38 -13 -38 -5 0 -9 11 -9 25 0 26 14 34 22 13z m38 -13
c0 -14 -4 -25 -10 -25 -5 0 -10 11 -10 25 0 14 5 25 10 25 6 0 10 -11 10 -25z
m-77 -35 c-6 -6 -33 30 -33 44 0 6 9 0 20 -14 10 -14 16 -27 13 -30z m125 32
c6 -18 -15 -14 -22 4 -4 10 -1 14 6 12 6 -2 14 -10 16 -16z m-248 -52 c0 -5
-7 -10 -16 -10 -8 0 -12 5 -9 10 3 6 10 10 16 10 5 0 9 -4 9 -10z m-9295 -10
c-3 -5 -11 -10 -16 -10 -6 0 -7 5 -4 10 3 6 11 10 16 10 6 0 7 -4 4 -10z m-55
-19 c0 -6 -4 -13 -10 -16 -5 -3 -10 1 -10 9 0 9 5 16 10 16 6 0 10 -4 10 -9z
m-39 -14 c-1 -12 -15 -9 -19 4 -3 6 1 10 8 8 6 -3 11 -8 11 -12z m-57 -12 c3
-8 1 -15 -4 -15 -6 0 -10 7 -10 15 0 8 2 15 4 15 2 0 6 -7 10 -15z m7769 -163
c4 -46 6 -867 5 -1825 l-3 -1742 -213 -43 c-118 -24 -215 -42 -217 -40 -2 2
-5 767 -6 1700 l-2 1697 64 53 c35 29 100 87 144 128 152 143 175 161 198 158
20 -3 23 -11 30 -86z m-193 46 c0 -6 -29 -38 -64 -72 -35 -34 -93 -89 -129
-123 -89 -85 -121 -84 -77 2 15 28 19 50 15 73 -6 30 -4 34 32 48 21 8 47 20
58 26 41 24 150 66 157 62 4 -3 8 -10 8 -16z m-7430 -29 c0 -6 -4 -7 -10 -4
-5 3 -10 11 -10 16 0 6 5 7 10 4 6 -3 10 -11 10 -16z m-123 -11 c-3 -8 -6 -5
-6 6 -1 11 2 17 5 13 3 -3 4 -12 1 -19z m1823 -18 c0 -11 -7 -20 -15 -20 -18
0 -19 12 -3 28 16 16 18 15 18 -8z m-106 -5 c6 -17 -2 -45 -14 -45 -12 0 -18
22 -12 43 5 21 18 22 26 2z m54 -2 c-5 -25 -28 -28 -28 -4 0 12 6 21 16 21 9
0 14 -7 12 -17z m-108 -18 c0 -14 -4 -25 -9 -25 -12 0 -19 21 -13 38 8 21 22
13 22 -13z m-50 -10 c0 -16 -6 -25 -15 -25 -15 0 -21 31 -8 43 13 14 23 6 23
-18z m-147 -28 c-3 -23 -11 -37 -20 -37 -12 0 -13 7 -8 27 7 28 25 57 31 50 2
-2 1 -20 -3 -40z m97 17 c0 -31 -23 -28 -28 4 -2 15 2 22 12 22 11 0 16 -9 16
-26z m-146 -17 c-3 -9 -11 -17 -16 -17 -6 0 -7 7 -4 16 3 9 6 21 6 27 0 8 3 8
10 1 6 -6 8 -18 4 -27z m8657 20 c-1 -4 -1 -14 -1 -22 0 -8 -4 -15 -9 -15 -10
0 -21 36 -13 45 7 7 24 2 23 -8z m-8551 -23 c0 -8 -6 -14 -14 -14 -18 0 -29
27 -13 33 16 6 27 -1 27 -19z m8475 6 c9 15 25 12 25 -4 0 -20 -19 -31 -32
-18 -6 6 -17 8 -24 5 -8 -3 -14 1 -14 11 0 13 4 15 19 6 13 -7 22 -7 26 0z
m-55 -38 c0 -13 -3 -12 -20 3 -11 10 -17 22 -14 27 8 12 34 -11 34 -30z
m-8674 11 c17 -23 17 -33 0 -33 -8 0 -17 7 -20 16 -14 36 -2 46 20 17z m54 -8
c0 -14 0 -28 1 -32 0 -4 -5 -9 -11 -11 -8 -3 -10 3 -5 18 5 15 4 20 -4 16 -12
-8 -16 16 -4 27 13 14 23 6 23 -18z m58 2 c2 -10 -3 -17 -12 -17 -9 0 -16 2
-16 4 0 2 -3 12 -6 21 -5 13 -2 16 12 13 10 -2 20 -11 22 -21z m8482 -2 c6 -8
10 -20 8 -26 -2 -6 -12 0 -21 15 -18 27 -8 37 13 11z m-8818 -40 c-4 -42 -14
-56 -26 -37 -6 10 14 82 23 82 3 0 5 -20 3 -45z m138 28 c0 -10 -5 -25 -10
-33 -7 -11 -10 -7 -10 18 0 17 5 32 10 32 6 0 10 -8 10 -17z m44 1 c9 -24 7
-34 -8 -34 -13 0 -26 20 -26 41 0 15 27 10 34 -7z m-93 -16 c22 -27 24 -38 6
-38 -11 0 -37 39 -37 55 0 11 13 3 31 -17z m8639 14 c0 -5 -10 -20 -22 -33
-16 -18 -19 -19 -15 -6 4 10 7 25 7 33 0 8 7 14 15 14 8 0 15 -4 15 -8z m45
-15 c0 -26 -20 -25 -23 2 -3 16 1 22 10 19 7 -3 13 -12 13 -21z m-8725 -6 c0
-17 -12 -41 -21 -41 -10 0 -12 33 -2 43 9 10 23 9 23 -2z m8623 -5 c6 -16 -2
-28 -14 -20 -12 7 -11 34 0 34 5 0 11 -6 14 -14z m-45 -19 c2 -10 -3 -17 -12
-17 -10 0 -16 9 -16 21 0 24 23 21 28 -4z m-48 -6 c0 -18 -35 -35 -52 -25 -14
9 -9 24 6 18 7 -3 16 2 19 10 9 22 27 20 27 -3z m-87 -16 c4 -8 2 -17 -3 -20
-6 -4 -10 -4 -10 -1 0 2 -3 11 -6 20 -3 9 -2 16 4 16 5 0 12 -7 15 -15z
m-8090 -215 c3 -10 -1 -24 -7 -29 -10 -8 -11 -3 -8 19 5 35 8 37 15 10z m-53
-20 c0 -16 -4 -30 -10 -30 -5 0 -10 14 -10 30 0 17 5 30 10 30 6 0 10 -13 10
-30z m-50 -11 c0 -10 -4 -19 -10 -19 -5 0 -10 12 -10 26 0 14 4 23 10 19 6 -3
10 -15 10 -26z m-50 -16 c-1 -27 -1 -27 -15 -9 -19 25 -19 36 0 36 10 0 15
-10 15 -27z m-90 -18 c0 -14 -4 -25 -10 -25 -5 0 -10 11 -10 25 0 14 5 25 10
25 6 0 10 -11 10 -25z m56 -13 c-9 -8 -26 10 -26 26 1 15 2 15 15 -2 8 -11 13
-21 11 -24z m-116 2 c0 -8 5 -14 10 -14 6 0 10 -4 10 -10 0 -11 -30 -14 -30
-2 0 4 -3 18 -7 31 -4 17 -3 22 5 17 7 -4 12 -14 12 -22z m9010 -28 c0 -8 -8
-20 -17 -27 -15 -12 -16 -12 -10 4 4 10 7 25 7 33 0 9 5 12 10 9 6 -3 10 -12
10 -19z m-52 -5 c10 -6 10 -10 -2 -20 -8 -7 -20 -10 -26 -6 -5 3 -17 -1 -25
-9 -9 -8 -22 -13 -30 -9 -9 3 -22 0 -30 -7 -19 -16 -19 0 -1 25 12 16 16 17
30 6 13 -11 17 -11 22 3 3 9 10 14 14 11 5 -3 11 -1 15 5 7 12 16 12 33 1z
m-318 -75 c-8 -21 -15 -27 -30 -23 -11 3 -24 -1 -31 -9 -16 -20 -41 -18 -37 4
2 10 11 16 21 14 9 -2 17 2 17 8 0 7 8 9 20 5 14 -4 22 -1 25 9 15 46 18 52
22 35 2 -8 -1 -28 -7 -43z m168 20 c3 -12 -1 -17 -10 -14 -7 3 -15 13 -16 22
-3 12 1 17 10 14 7 -3 15 -13 16 -22z m-48 0 c0 -7 -9 -16 -20 -19 -19 -5 -28
12 -13 26 11 12 33 7 33 -7z m-60 -30 c-7 -7 -14 -6 -22 2 -10 10 -10 15 2 22
17 11 34 -10 20 -24z m-2770 -1174 c0 -648 3 -1348 7 -1555 l6 -375 -39 -11
c-74 -19 -386 -82 -390 -78 -2 2 -4 703 -4 1558 l0 1554 77 18 c74 18 304 63
331 66 9 1 12 -241 12 -1177z m2580 1155 c0 -12 -39 -42 -46 -35 -6 6 26 48
37 48 5 0 9 -6 9 -13z m-72 -9 c16 -16 15 -28 -3 -28 -8 0 -15 2 -15 4 0 2 -3
11 -6 20 -7 19 7 21 24 4z m-37 -51 c-15 -15 -31 2 -31 31 l1 27 20 -24 c12
-15 16 -28 10 -34z m-8095 -293 c-3 -8 -11 -14 -18 -14 -10 0 -10 2 0 9 8 4
13 17 12 27 -3 30 2 42 7 16 3 -13 2 -30 -1 -38z m-91 0 c0 -15 -6 -29 -12
-32 -14 -4 -19 49 -7 61 12 11 20 -1 19 -29z m55 10 c0 -31 -23 -28 -28 4 -2
15 2 22 12 22 11 0 16 -9 16 -26z m-114 -9 c6 -14 -3 -52 -10 -44 -2 2 -6 16
-10 32 -7 29 10 39 20 12z m-46 -19 c0 -14 -4 -28 -10 -31 -6 -4 -10 7 -10 24
0 17 5 31 10 31 6 0 10 -11 10 -24z m-39 -13 c6 -17 5 -23 -5 -23 -8 0 -16 9
-19 20 -3 11 -10 20 -15 20 -14 0 -25 -34 -13 -38 6 -2 9 -8 5 -13 -9 -15 -24
0 -24 25 0 30 9 38 39 34 14 -2 27 -12 32 -25z m8649 -19 c0 -15 -22 -44 -31
-39 -11 7 7 45 21 45 6 0 10 -3 10 -6z m-50 -18 c0 -7 -7 -19 -15 -26 -13 -11
-15 -8 -15 14 0 16 5 26 15 26 8 0 15 -6 15 -14z m-55 -21 c0 -10 -6 -20 -12
-22 -8 -3 -13 5 -13 22 0 17 5 25 13 23 6 -3 12 -13 12 -23z m-52 -7 c7 -26 9
-24 -23 -32 -14 -3 -19 -3 -12 0 6 3 12 17 12 30 0 30 16 31 23 2z m-69 -4
c23 -9 20 -34 -4 -34 -13 0 -20 7 -20 20 0 22 1 23 24 14z m-40 -45 c-12 -20
-34 -8 -34 18 0 25 1 26 20 8 11 -10 17 -22 14 -26z m-64 23 c0 -13 -12 -22
-22 -16 -10 6 -1 24 13 24 5 0 9 -4 9 -8z m-100 -41 c0 -20 -17 -37 -27 -28
-7 8 7 47 18 47 5 0 9 -9 9 -19z m100 -1 c0 -5 -2 -10 -4 -10 -3 0 -8 5 -11
10 -3 6 -1 10 4 10 6 0 11 -4 11 -10z m-8130 -365 c0 -26 -14 -33 -25 -15 -9
14 1 40 15 40 5 0 10 -11 10 -25z m48 8 c-5 -24 -25 -27 -31 -3 -4 15 0 20 15
20 13 0 18 -6 16 -17z m4320 -1234 c2 -990 -1 -1249 -10 -1257 -10 -7 -232
-59 -410 -94 -10 -2 -14 217 -20 1071 l-7 1075 112 110 c62 61 139 149 172
195 89 125 115 152 139 149 l21 -3 3 -1246z m-4418 1215 c0 -14 -4 -23 -10
-19 -5 3 -10 15 -10 26 0 10 5 19 10 19 6 0 10 -12 10 -26z m-46 0 c10 -25 7
-34 -9 -34 -8 0 -15 9 -15 20 0 11 -3 20 -8 20 -4 0 -13 -9 -20 -20 -7 -12 -8
-20 -2 -20 5 0 10 -4 10 -10 0 -15 -27 -12 -33 4 -8 21 21 56 47 56 13 0 27
-7 30 -16z m4330 -6 c-11 -18 -175 -209 -246 -288 l-59 -64 4 129 3 130 150
52 c82 28 150 52 152 52 2 1 0 -5 -4 -11z m-4426 -25 c4 -27 -16 -31 -25 -5
-4 9 -11 21 -17 25 -6 4 0 7 14 5 17 -2 26 -10 28 -25z m8524 -5 c-15 -15 -26
-4 -18 18 5 13 9 15 18 6 9 -9 9 -15 0 -24z m-8577 -9 c8 -23 1 -34 -14 -24
-13 8 -15 45 -2 45 5 0 13 -9 16 -21z m8478 7 c6 -15 -19 -43 -29 -33 -8 8 5
47 16 47 4 0 10 -6 13 -14z m53 3 c7 -12 -15 -31 -28 -23 -4 3 -8 12 -8 20 0
17 26 19 36 3z m-156 -41 c0 -10 -4 -18 -9 -18 -11 0 -22 40 -14 53 7 12 23
-12 23 -35z m50 22 c0 -11 -7 -20 -15 -20 -8 0 -15 9 -15 20 0 11 7 20 15 20
8 0 15 -9 15 -20z m-174 -67 c-10 -10 -19 5 -10 18 6 11 8 11 12 0 2 -7 1 -15
-2 -18z m-2993 -160 c4 -87 7 -586 7 -1110 0 -898 -1 -952 -17 -957 -37 -11
-369 -76 -390 -76 l-23 0 0 1104 0 1104 63 17 c94 25 309 73 333 74 20 1 21
-5 27 -156z m3557 -163 c0 -10 -50 -26 -112 -36 -25 -4 -38 -3 -38 4 0 6 17
14 38 17 20 3 48 10 62 14 35 12 50 13 50 1z m-170 -41 c0 -22 -25 -26 -33 -5
-6 16 12 38 25 30 4 -3 8 -14 8 -25z m-52 -7 c2 -7 -3 -12 -12 -12 -9 0 -16 7
-16 16 0 17 22 14 28 -4z m-8292 -28 c-5 -13 -10 -14 -18 -6 -6 6 -8 18 -4 28
5 13 10 14 18 6 6 -6 8 -18 4 -28z m8228 30 c23 -9 20 -34 -4 -34 -13 0 -20 7
-20 20 0 22 1 23 24 14z m-64 -14 c0 -5 7 -10 15 -10 8 0 15 -4 15 -9 0 -5
-13 -8 -30 -7 -16 1 -30 -1 -30 -5 0 -4 -11 -10 -24 -13 -13 -3 -31 -9 -40
-12 -10 -4 -16 -1 -16 9 0 8 6 15 13 14 18 -1 77 26 77 35 0 4 5 8 10 8 6 0
10 -4 10 -10z m-8220 -7 c0 -5 -4 -14 -9 -21 -6 -10 -10 -9 -14 7 -3 14 0 21
9 21 8 0 14 -3 14 -7z m-56 -19 c8 -22 8 -24 -6 -24 -6 0 -8 3 -5 7 4 3 2 12
-4 20 -7 8 -8 13 -1 13 5 0 13 -7 16 -16z m-40 -10 c10 -25 1 -27 -19 -4 -15
17 -16 20 -3 20 9 0 19 -7 22 -16z m-84 -3 c0 -5 -6 -14 -14 -20 -11 -9 -16
-9 -21 0 -4 6 -1 15 6 20 18 11 29 11 29 0z m38 -19 c5 -31 -15 -27 -21 3 -3
16 0 24 7 22 6 -2 12 -13 14 -25z m-98 -17 c0 -16 -6 -25 -15 -25 -16 0 -19 9
-9 34 9 25 24 19 24 -9z m3875 -141 c-10 -4 -76 -28 -248 -89 -142 -50 -73
-37 103 20 95 30 178 55 185 55 21 0 25 -140 25 -1026 l0 -862 -43 -10 c-105
-27 -381 -82 -385 -77 -8 7 -16 1797 -8 1836 5 28 17 41 63 70 49 30 117 60
183 82 19 7 139 7 125 1z m-385 -124 c-8 -5 -19 -10 -25 -10 -5 0 -3 5 5 10 8
5 20 10 25 10 6 0 3 -5 -5 -10z m5420 -29 c0 -19 -17 -38 -25 -29 -7 7 7 48
16 48 5 0 9 -9 9 -19z m-52 -19 c2 -7 -3 -12 -12 -12 -9 0 -16 7 -16 16 0 17
22 14 28 -4z m-50 -16 c3 -13 -1 -17 -14 -14 -11 2 -20 11 -22 22 -3 13 1 17
14 14 11 -2 20 -11 22 -22z m-64 -2 c15 -40 -4 -48 -22 -9 -9 20 -9 25 2 25 8
0 17 -7 20 -16z m-54 -30 c0 -8 -7 -14 -15 -14 -8 0 -15 9 -15 20 0 13 5 18
15 14 8 -4 15 -12 15 -20z m-70 -9 c0 -14 -4 -25 -10 -25 -11 0 -14 33 -3 43
11 11 13 8 13 -18z m-106 -19 c-3 -14 -10 -26 -15 -26 -11 0 -11 3 1 36 13 33
23 26 14 -10z m56 4 c0 -10 -7 -20 -15 -24 -11 -4 -15 1 -15 18 0 12 3 26 6
29 11 10 24 -3 24 -23z m-156 -16 c10 -25 7 -34 -9 -34 -9 0 -15 9 -15 25 0
28 15 34 24 9z m-50 -27 c4 -19 3 -26 -4 -22 -5 3 -10 18 -10 32 0 32 5 28 14
-10z m111 13 c3 -6 -4 -10 -17 -10 -18 0 -20 2 -8 10 19 12 18 12 25 0z
m-8195 -60 c0 -11 -7 -20 -15 -20 -15 0 -21 21 -8 33 12 13 23 7 23 -13z m-91
-17 c0 -25 -1 -26 -9 -8 -12 27 -12 35 0 35 6 0 10 -12 9 -27z m-39 -7 c0 -14
-4 -27 -9 -30 -10 -6 -23 33 -15 46 10 16 24 7 24 -16z m-58 -11 c3 -14 1 -28
-3 -31 -5 -3 -9 -2 -9 3 0 4 -3 18 -6 31 -4 12 -2 22 4 22 5 0 12 -11 14 -25z
m-98 -27 c4 -17 2 -28 -4 -28 -5 0 -10 14 -10 32 0 36 4 35 14 -4z m56 12 c0
-11 -2 -20 -4 -20 -2 0 -11 -3 -19 -6 -11 -4 -13 1 -10 20 6 31 33 35 33 6z
m3222 -1007 c2 -357 -1 -651 -5 -654 -18 -13 -398 -89 -409 -82 -5 2 -8 294
-8 648 0 354 3 646 8 648 6 4 80 21 347 80 11 3 30 5 42 6 l22 1 3 -647z
m5237 566 c-22 -14 -29 -11 -29 11 0 18 3 19 21 9 17 -9 19 -13 8 -20z m51 22
c0 -6 -4 -13 -10 -16 -5 -3 -10 1 -10 9 0 9 5 16 10 16 6 0 10 -4 10 -9z
m-116 -15 c10 13 15 14 21 5 8 -15 -2 -26 -30 -34 -14 -5 -26 2 -40 21 l-20
27 29 -18 c26 -18 28 -18 40 -1z m-154 -16 c0 -5 -9 -10 -21 -10 -11 0 -17 5
-14 10 3 6 13 10 21 10 8 0 14 -4 14 -10z m84 -32 c-9 -14 -23 2 -17 18 4 12
8 13 14 3 4 -7 5 -17 3 -21z m-8106 -25 c-5 -25 -28 -28 -28 -4 0 12 6 21 16
21 9 0 14 -7 12 -17z m-60 -15 c-5 -32 -28 -35 -28 -4 0 17 5 26 16 26 10 0
14 -7 12 -22z m-58 -13 c0 -14 -4 -25 -10 -25 -5 0 -10 4 -10 9 0 5 -3 16 -6
25 -4 11 -1 16 10 16 10 0 16 -9 16 -25z m-50 -10 c0 -28 -15 -34 -24 -9 -10
25 -7 34 9 34 9 0 15 -9 15 -25z m-92 -20 c0 -13 -4 -22 -9 -19 -5 3 -9 16 -9
30 0 14 4 23 9 20 5 -3 9 -17 9 -31z m52 9 c0 -8 -4 -14 -9 -14 -11 0 -22 26
-14 34 9 9 23 -3 23 -20z m8177 -31 c-9 -9 -19 -14 -23 -11 -10 10 6 28 24 28
15 0 15 -1 -1 -17z m-6595 -20 c16 -15 33 -15 161 -6 78 5 143 9 145 8 1 -1 1
-52 0 -113 l-3 -110 -80 59 c-142 105 -221 149 -267 149 -42 0 -43 13 -3 23
11 3 22 5 24 6 3 0 13 -6 23 -16z m11 -74 c38 -20 200 -130 245 -166 l42 -34
0 -529 0 -529 -41 -11 c-41 -11 -368 -80 -380 -80 -18 0 -19 100 -13 706 l7
654 59 0 c33 0 69 -5 81 -11z m6137 -199 c0 -5 -5 -10 -11 -10 -5 0 -7 5 -4
10 3 6 8 10 11 10 2 0 4 -4 4 -10z m-95 -19 c-9 -16 12 -22 40 -11 15 6 32 7
38 3 7 -4 2 -10 -13 -14 -39 -11 -82 -10 -75 1 11 17 -7 11 -21 -7 -7 -10 -16
-14 -21 -10 -4 5 3 17 17 27 27 21 45 26 35 11z m-79 -31 c9 0 12 -4 9 -10
-12 -19 -35 -10 -34 13 0 12 3 16 6 10 2 -7 11 -13 19 -13z m-4996 -449 l0
-428 -32 -6 c-26 -5 -209 -42 -390 -79 -11 -2 -13 75 -13 412 0 374 2 415 16
418 9 2 29 -11 45 -28 36 -38 48 -38 64 0 11 27 10 32 -11 49 l-23 18 40 13
c39 13 253 57 287 59 16 1 17 -26 17 -428z m4520 339 c-6 -11 -12 -20 -14 -20
-2 0 -2 9 1 20 3 11 9 20 15 20 5 0 4 -9 -2 -20z m-6859 -33 c-8 -8 -11 -5
-11 9 0 27 14 41 18 19 2 -9 -1 -22 -7 -28z m1989 29 c0 -8 -7 -17 -16 -20
-25 -10 -30 2 -8 19 24 18 24 18 24 1z m4820 4 c0 -5 -5 -10 -11 -10 -5 0 -7
5 -4 10 3 6 8 10 11 10 2 0 4 -4 4 -10z m-60 -29 c-13 -26 -73 -31 -64 -6 4 9
13 13 24 10 9 -3 23 2 30 10 17 21 24 12 10 -14z m-6847 -1 c3 -11 1 -20 -4
-20 -5 0 -9 2 -9 4 0 2 -3 11 -6 20 -3 9 -2 16 4 16 5 0 12 -9 15 -20z m6757
-16 c0 -16 -16 -19 -25 -4 -8 13 4 32 16 25 5 -4 9 -13 9 -21z m-6800 -4 c0
-24 -16 -26 -28 -4 -8 13 -13 14 -31 4 -13 -6 -26 -9 -29 -5 -11 10 21 25 56
25 25 0 32 -4 32 -20z m-130 -17 c-1 -24 -2 -26 -11 -10 -5 9 -7 22 -4 27 10
17 15 11 15 -17z m1034 -58 c-4 -8 -11 -15 -16 -15 -6 0 -5 6 2 15 7 8 14 15
16 15 2 0 1 -7 -2 -15z m224 -457 l-3 -462 -210 -43 c-115 -23 -213 -43 -217
-43 -5 0 -8 180 -8 401 0 228 -4 408 -9 418 -13 24 2 45 28 38 13 -3 21 0 21
8 0 7 20 26 45 43 24 16 43 31 41 33 -2 2 2 10 10 17 8 7 14 11 14 8 0 -19
-19 -41 -56 -67 -24 -16 -44 -34 -44 -40 0 -17 42 11 96 63 49 47 57 51 140
68 49 10 104 19 122 19 l32 1 -2 -462z m5154 422 c6 0 9 -3 6 -6 -4 -3 -16 0
-29 6 -18 10 -23 9 -31 -4 -5 -9 -15 -16 -23 -16 -9 0 -6 8 10 24 32 32 49 37
53 14 2 -10 8 -18 14 -18z m46 18 c-2 -12 -9 -23 -16 -26 -10 -3 -11 16 -3 46
1 1 6 2 12 2 6 0 9 -10 7 -22z m-165 -41 c18 -4 17 -5 -5 -6 -23 -1 -28 3 -27
22 1 15 3 17 6 5 2 -9 14 -19 26 -21z m-493 -97 c0 -13 -7 -20 -20 -20 -18 0
-19 2 -8 20 7 11 16 20 20 20 5 0 8 -9 8 -20z m-60 -25 c-17 -21 -29 -19 -27
4 0 11 6 17 14 14 7 -3 13 1 14 8 0 11 2 11 6 1 3 -7 -1 -19 -7 -27z m-48 17
c-6 -5 -19 -17 -27 -28 -14 -19 -14 -19 -15 3 0 12 7 23 18 26 28 8 38 7 24
-1z m-80 -27 c3 -14 1 -25 -3 -25 -5 0 -9 11 -9 25 0 14 2 25 4 25 2 0 6 -11
8 -25z m-472 -92 c0 -3 -7 -15 -17 -25 -17 -19 -43 -24 -43 -8 0 6 7 10 15 10
9 0 18 7 21 15 6 15 24 21 24 8z m-70 -16 c0 -14 -20 -37 -32 -37 -12 0 -10
24 4 38 16 16 28 15 28 -1z m-120 -13 c0 -8 -4 -12 -10 -9 -5 3 -10 10 -10 16
0 5 5 9 10 9 6 0 10 -7 10 -16z m60 -4 c0 -11 -4 -20 -10 -20 -5 0 -10 9 -10
20 0 11 5 20 10 20 6 0 10 -9 10 -20z m9864 -12 c9 -12 16 -39 16 -60 0 -20 5
-40 10 -43 22 -14 8 -23 -31 -20 -78 7 -114 72 -67 122 27 29 52 29 72 1z
m-9894 -8 c0 -5 -8 -10 -17 -10 -15 0 -16 2 -3 10 19 12 20 12 20 0z m3718
-67 c-2 -23 -11 -31 -42 -41 -21 -7 -40 -11 -41 -10 -1 2 -5 18 -8 36 -6 27
-4 32 13 32 13 0 20 -7 20 -20 0 -11 7 -20 15 -20 8 0 15 7 15 15 0 8 -5 15
-11 15 -5 0 -7 5 -4 10 3 6 15 10 26 10 16 0 20 -6 17 -27z m-105 -20 c3 -16
2 -31 -2 -36 -7 -7 -113 -32 -188 -44 -32 -5 -33 -4 -33 30 0 26 5 36 20 40
18 5 25 -6 22 -34 -1 -3 6 -6 14 -6 8 0 14 10 14 23 0 39 29 40 43 1 4 -10 11
-15 17 -12 7 4 7 12 0 24 -5 10 -6 21 -3 25 14 13 31 5 37 -19 9 -35 26 -31
26 5 0 38 26 40 33 3z m-8309 -10 c-4 -16 -11 -32 -17 -38 -6 -7 -8 -2 -3 15
3 14 6 31 6 38 0 6 5 12 10 12 6 0 8 -11 4 -27z m-46 6 c-10 -5 -18 -19 -18
-29 0 -10 -4 -22 -10 -25 -5 -3 -10 0 -10 9 0 8 -3 21 -6 29 -5 15 11 24 46
26 11 0 11 -2 -2 -10z m4236 -24 c-10 -7 -24 -11 -31 -8 -7 3 -20 -1 -29 -8
-13 -10 -17 -10 -24 1 -7 12 -12 11 -29 -5 -30 -26 -39 -10 -12 19 19 21 26
23 42 13 14 -9 21 -9 31 1 9 9 15 9 26 0 11 -10 16 -8 25 7 7 13 12 15 15 7 2
-7 -4 -19 -14 -27z m-4323 -38 c-8 -8 -11 -2 -11 19 0 40 14 54 18 19 2 -15
-1 -32 -7 -38z m-45 37 c-4 -9 -1 -23 5 -30 6 -8 7 -14 3 -14 -5 0 -15 10 -23
21 -11 18 -11 23 1 30 19 12 21 11 14 -7z m4204 -14 c0 -11 -4 -20 -10 -20 -5
0 -10 9 -10 20 0 11 5 20 10 20 6 0 10 -9 10 -20z m-4300 -4 c0 -8 3 -23 6
-33 5 -16 4 -16 -10 1 -18 22 -21 46 -6 46 6 0 10 -6 10 -14z m58 -9 c2 -10
-3 -17 -12 -17 -10 0 -16 9 -16 21 0 24 23 21 28 -4z m8280 -9 c-3 -38 -38
-55 -38 -19 0 11 -5 23 -11 26 -6 4 -9 -4 -7 -21 2 -22 -2 -29 -17 -32 -11 -1
-39 -5 -63 -8 l-43 -6 3 33 c2 23 9 35 21 37 13 3 17 -3 17 -28 0 -21 4 -30
13 -27 13 4 14 21 2 51 -6 14 -4 17 11 14 10 -1 21 -14 25 -28 l7 -25 1 26 c1
34 8 39 48 39 33 0 34 -2 31 -32z m-208 -24 c6 -14 10 -29 10 -34 0 -13 -67
-32 -90 -25 -11 4 -20 2 -20 -4 0 -6 -18 -11 -40 -11 -38 0 -52 12 -30 25 6 4
5 13 -2 25 -16 25 -11 28 46 31 41 2 51 -1 66 -21 24 -32 37 -19 15 14 -17 26
-17 26 9 26 19 0 29 -7 36 -26z m6390 -4 c0 -11 -2 -20 -3 -20 -2 0 -12 9 -22
20 -18 19 -17 20 3 20 15 0 22 -6 22 -20z m-56 -11 c-3 -5 -10 -7 -15 -4 -5 4
-13 -5 -19 -19 -5 -14 -14 -26 -19 -26 -15 0 0 40 22 55 21 15 42 11 31 -6z
m-84 -29 c0 -40 -15 -54 -27 -24 -5 15 11 64 22 64 3 0 5 -18 5 -40z m-54 4
c-3 -9 -6 -22 -6 -30 0 -8 -4 -14 -10 -14 -5 0 -10 14 -10 30 0 21 5 30 16 30
11 0 14 -5 10 -16z m168 -15 c-8 -13 -24 -1 -24 18 0 13 3 13 15 3 8 -7 12
-16 9 -21z m-10665 -13 c-8 -8 -35 -18 -62 -21 -41 -6 -46 -5 -41 9 4 10 17
15 38 14 18 -1 41 4 52 10 24 13 32 6 13 -12z m10439 5 c-4 -19 -22 -18 -26 2
-2 7 4 14 13 14 9 0 15 -7 13 -16z m-77 -34 c-11 -29 -31 -36 -31 -11 0 8 5
25 11 36 16 29 32 8 20 -25z m-51 23 c0 -26 -25 -58 -55 -70 -39 -15 -50 -15
-50 3 0 7 10 11 27 9 20 -2 28 2 33 20 12 38 45 67 45 38z m90 -16 c0 -8 -4
-14 -10 -14 -5 0 -10 9 -10 21 0 11 5 17 10 14 6 -3 10 -13 10 -21z m-10523 1
c0 -9 -10 -15 -25 -15 -21 0 -22 2 -12 15 7 8 18 15 25 15 6 0 12 -7 12 -15z
m10373 0 c0 -8 -7 -15 -15 -15 -8 0 -15 7 -15 15 0 8 7 15 15 15 8 0 15 -7 15
-15z m202 -7 c-7 -7 -12 -8 -12 -2 0 14 12 26 19 19 2 -3 -1 -11 -7 -17z
m-10639 -3 c1 -5 -6 -11 -15 -13 -11 -2 -18 3 -18 13 0 17 30 18 33 0z m-507
-142 c-11 -11 -19 6 -11 24 8 17 8 17 12 0 3 -10 2 -21 -1 -24z m-96 7 c0 -10
-9 -24 -19 -30 -18 -9 -18 -8 -8 20 13 34 27 39 27 10z m38 -21 c-9 -6 -14 -3
-16 8 -2 8 2 19 10 24 9 6 14 3 16 -8 2 -8 -2 -19 -10 -24z m-111 -6 c-3 -10
-5 -4 -5 12 0 17 2 24 5 18 2 -7 2 -21 0 -30z m-567 -109 c0 -8 -4 -12 -10 -9
-5 3 -10 10 -10 16 0 5 5 9 10 9 6 0 10 -7 10 -16z m40 6 c0 -5 -4 -10 -10
-10 -5 0 -10 5 -10 10 0 6 5 10 10 10 6 0 10 -4 10 -10z m-153 -32 c-3 -8 -6
-5 -6 6 -1 11 2 17 5 13 3 -3 4 -12 1 -19z m7721 -100 c-2 -17 -8 -33 -14 -35
-6 -2 -8 10 -6 32 5 44 24 47 20 3z m-8200 -15 c-6 -7 -16 -13 -22 -12 -7 0
-6 2 2 6 6 2 12 14 12 26 0 18 2 19 10 7 5 -9 5 -19 -2 -27z m8101 -20 c1 -18
-18 -16 -25 2 -4 8 -3 23 1 33 7 16 8 15 15 -3 5 -11 9 -26 9 -32z m51 17 c0
-32 -14 -40 -24 -14 -10 27 -7 44 9 44 10 0 15 -10 15 -30z m-8260 10 c0 -5
-4 -10 -10 -10 -5 0 -10 5 -10 10 0 6 5 10 10 10 6 0 10 -4 10 -10z m8122 -6
c8 -7 -21 -64 -33 -64 -12 0 -11 14 3 45 11 25 19 30 30 19z m-8222 -36 c0 -5
-4 -8 -10 -8 -5 0 -10 10 -10 23 0 18 2 19 10 7 5 -8 10 -18 10 -22z m60 -1
c0 -5 -4 -5 -10 -2 -5 3 -10 14 -10 23 0 15 2 15 10 2 5 -8 10 -19 10 -23z
m65 23 c3 -5 1 -10 -4 -10 -6 0 -11 5 -11 10 0 6 2 10 4 10 3 0 8 -4 11 -10z
m7914 -19 c24 -33 14 -55 -31 -65 -26 -6 -28 -4 -28 28 0 71 24 86 59 37z
m117 4 c3 -14 4 -32 0 -40 -6 -17 -36 -21 -36 -5 0 6 5 10 11 10 7 0 9 11 6
30 -8 36 10 41 19 5z m110 -10 c-6 -17 -26 -20 -26 -5 0 16 24 40 28 29 2 -5
1 -16 -2 -24z m-156 15 c0 -16 -23 -60 -32 -60 -10 0 -10 1 3 39 10 29 29 43
29 21z m2363 -92 c-6 -82 -24 -108 -74 -108 -28 0 -29 2 -29 44 0 47 12 63 50
69 17 3 27 13 32 35 15 57 27 34 21 -40z m-11777 35 c-10 -10 -19 5 -10 18 6
11 8 11 12 0 2 -7 1 -15 -2 -18z m837 -43 c3 -11 1 -23 -4 -26 -5 -3 -9 6 -9
20 0 31 6 34 13 6z m-43 -10 c0 -5 -4 -10 -10 -10 -5 0 -10 5 -10 10 0 6 5 10
10 10 6 0 10 -4 10 -10z m-46 -41 c-9 -15 -24 10 -17 29 5 12 7 12 15 -2 5 -9
6 -21 2 -27z m-54 6 c0 -14 -4 -25 -10 -25 -11 0 -14 33 -3 43 11 11 13 8 13
-18z m10946 10 c-11 -8 -25 -15 -32 -15 -13 0 -24 -22 -24 -50 0 -17 -17 -37
-25 -29 -1 2 -6 22 -9 45 -7 39 -6 41 26 51 18 6 44 11 58 12 24 0 24 0 6 -14z
m-11039 -21 c1 -18 -2 -23 -9 -16 -6 6 -8 18 -5 26 9 22 12 20 14 -10z m42
-15 c-24 -15 -29 -10 -11 11 10 12 18 16 21 9 2 -6 -3 -15 -10 -20z m10599
-12 c4 -41 6 -42 42 -22 55 31 100 11 100 -44 0 -38 -96 -75 -120 -46 -17 21
-28 19 -32 -7 -2 -12 -9 -23 -15 -26 -10 -3 -13 20 -13 93 0 86 2 96 18 93 12
-2 18 -14 20 -41z m280 -18 c2 -30 -2 -39 -23 -53 -30 -20 -95 -33 -96 -20 0
5 -2 22 -4 38 -6 42 34 78 83 74 35 -3 37 -5 40 -39z m-350 -86 c-2 -37 -7
-49 -21 -51 -15 -3 -18 2 -15 35 3 33 0 38 -19 41 -21 3 -22 1 -16 -47 6 -51
6 -51 -23 -51 -16 -1 -40 -7 -54 -15 -53 -31 -105 -2 -80 44 13 26 13 31 -4
31 -9 0 -16 -16 -20 -44 -6 -40 -29 -76 -41 -64 -9 9 15 112 28 120 6 5 26 7
42 6 27 -3 30 -6 27 -35 -4 -34 15 -54 29 -32 5 8 9 26 9 41 0 37 54 65 128
67 l33 1 -3 -47z m-340 17 c32 -20 33 -22 31 -80 -2 -60 -2 -60 -44 -80 -69
-33 -68 -34 -80 94 -5 52 -4 71 7 77 21 14 51 10 86 -11z m-188 -125 c0 -30
-4 -55 -10 -55 -5 0 -10 13 -10 28 0 36 -8 44 -31 31 -14 -7 -19 -21 -19 -51
0 -51 -10 -43 -26 20 -14 54 -11 62 21 62 13 0 27 5 30 10 3 6 15 10 26 10 16
0 19 -7 19 -55z m-354 8 c-10 -10 -19 5 -10 18 6 11 8 11 12 0 2 -7 1 -15 -2
-18z m236 -29 c9 -31 3 -74 -10 -74 -9 0 -32 92 -25 103 9 15 27 1 35 -29z
m-49 -49 c1 -30 -2 -40 -14 -43 -13 -2 -18 7 -21 42 -3 43 7 62 25 47 4 -4 8
-25 10 -46z m-58 -8 c2 -39 -1 -46 -21 -56 -13 -6 -31 -8 -39 -5 -17 7 -30 47
-21 69 5 13 66 46 75 39 1 -1 4 -23 6 -47z m-7255 24 c0 -14 -10 -21 -36 -26
-42 -7 -52 -2 -34 20 10 12 16 13 27 3 12 -10 17 -9 24 5 13 22 19 22 19 -2z
m7140 -11 c0 -11 -5 -20 -11 -20 -8 0 -9 -14 -5 -43 5 -35 3 -47 -13 -61 -19
-17 -19 -16 -23 54 -2 56 0 74 12 81 25 14 40 10 40 -11z m-7241 -16 c3 -16 1
-17 -13 -5 -19 16 -21 34 -3 29 6 -3 14 -13 16 -24z m6971 16 c0 -5 -11 -12
-25 -16 -16 -4 -25 -13 -25 -25 0 -19 1 -19 40 1 21 11 43 20 49 20 14 0 23
-52 11 -64 -8 -8 -12 -4 -16 11 -5 18 -10 21 -24 13 -10 -6 -28 -10 -39 -10
-18 0 -21 -6 -21 -40 0 -22 -4 -40 -9 -40 -11 0 -21 51 -21 111 l0 49 40 0
c22 0 40 -4 40 -10z m-7035 -10 c3 -5 3 -15 -1 -21 -6 -11 -23 6 -24 24 0 10
18 9 25 -3z m7209 4 c26 -10 22 -90 -5 -104 -29 -16 -65 -5 -85 25 -21 32 -13
51 28 69 40 17 42 18 62 10z m-7941 -201 c5 -142 3 -191 -6 -199 -7 -6 -97
-28 -202 -49 -104 -20 -311 -64 -460 -96 -375 -83 -680 -148 -1025 -218 -342
-70 -577 -119 -740 -156 -248 -57 -335 -74 -341 -67 -4 4 -10 89 -14 189 -7
173 -6 182 12 191 11 6 87 23 169 37 186 33 387 74 614 125 96 22 324 71 505
111 1160 250 1231 265 1350 293 55 13 107 24 116 25 14 1 17 -24 22 -186z
m637 167 c0 -19 -11 -26 -23 -14 -8 8 3 34 14 34 5 0 9 -9 9 -20z m48 -1 c-2
-6 -8 -10 -13 -10 -5 0 -11 4 -13 10 -2 6 4 11 13 11 9 0 15 -5 13 -11z m-148
-31 c0 -5 -4 -8 -10 -8 -5 0 -10 10 -10 23 0 18 2 19 10 7 5 -8 10 -18 10 -22z
m60 17 c0 -8 -4 -15 -9 -15 -5 0 -18 -3 -28 -7 -17 -6 -17 -5 1 15 22 26 36
28 36 7z m-257 -7 c-20 -26 -24 -66 -7 -83 20 -20 11 -33 -11 -15 -20 17 -19
69 2 92 18 20 31 25 16 6z m7257 -3 c0 -9 -11 -20 -24 -24 -22 -9 -36 -29 -36
-52 0 -5 14 -3 30 6 29 15 30 15 30 -9 0 -31 -13 -39 -59 -38 -19 1 -45 -5
-58 -13 -12 -8 -33 -15 -45 -15 -13 0 -49 -14 -81 -30 -31 -17 -62 -28 -67
-25 -6 3 -10 26 -10 51 0 39 4 47 31 63 17 10 39 16 50 14 25 -7 13 -20 -21
-25 -24 -3 -42 -38 -32 -65 6 -19 21 -16 58 12 23 18 34 35 36 58 2 24 8 33
26 35 20 3 21 1 12 -24 -12 -31 -8 -39 15 -30 11 4 15 16 13 38 -2 24 1 33 15
36 10 2 17 -3 17 -12 0 -9 5 -16 10 -16 6 0 10 6 10 14 0 15 55 66 71 66 5 0
9 -7 9 -15z m-7205 -35 c-3 -5 -15 -10 -26 -10 -11 0 -17 5 -14 10 3 6 15 10
26 10 11 0 17 -4 14 -10z m6855 -10 c0 -5 -7 -10 -16 -10 -8 0 -12 5 -9 10 3
6 10 10 16 10 5 0 9 -4 9 -10z m-158 -52 c9 -7 18 -30 21 -50 l6 -38 -40 0
c-44 0 -48 8 -19 35 28 25 25 37 -7 33 -27 -3 -28 -6 -31 -60 -2 -43 -7 -58
-17 -58 -23 0 -25 128 -2 142 19 12 72 9 89 -4z m146 -47 c4 -56 -4 -87 -24
-95 -26 -10 -37 4 -18 25 13 14 15 31 12 69 -4 43 -3 50 11 48 11 -2 17 -16
19 -47z m-55 2 c3 -16 0 -34 -6 -42 -9 -11 -14 -9 -29 9 -21 26 -23 46 -5 53
26 11 35 6 40 -20z m287 -713 c0 -16 -4 -30 -10 -30 -5 0 -10 14 -10 30 0 17
5 30 10 30 6 0 10 -13 10 -30z m-110 0 c0 -5 -7 -10 -15 -10 -14 0 -19 -11
-16 -37 1 -7 -3 -13 -9 -13 -16 0 -12 37 6 54 18 18 34 21 34 6z m60 1 c0 -21
-13 -41 -26 -41 -17 0 -19 36 -1 43 19 8 27 8 27 -2z m41 -344 c-7 -7 -9 2 -6
29 5 52 7 55 12 15 3 -18 0 -38 -6 -44z m-36 33 c-17 -34 -35 -39 -35 -12 0
15 24 35 48 41 1 1 -4 -12 -13 -29z m-55 -15 c0 -16 -6 -25 -15 -25 -28 0 -18
40 13 49 1 1 2 -10 2 -24z m-53 -15 c-5 -34 -17 -35 -17 -1 0 19 4 30 10 26 5
-3 8 -15 7 -25z m101 -300 c-15 -23 -28 -26 -28 -7 0 17 10 27 27 27 11 0 11
-4 1 -20z m-45 -10 c8 -30 -8 -33 -21 -5 -9 20 -9 25 2 25 8 0 16 -9 19 -20z
m-43 -27 c0 -7 -4 -13 -10 -13 -5 0 -10 12 -10 28 0 21 2 24 10 12 5 -8 10
-21 10 -27z m-8223 -55 c-3 -8 -6 -5 -6 6 -1 11 2 17 5 13 3 -3 4 -12 1 -19z
m-37 -8 c21 -21 26 -40 11 -40 -11 0 -41 39 -41 52 0 13 9 9 30 -12z m-90 -30
c0 -32 -14 -40 -24 -14 -10 27 -7 44 9 44 10 0 15 -10 15 -30z m50 5 c0 -28
-15 -34 -24 -9 -10 25 -7 34 9 34 9 0 15 -9 15 -25z m-104 -29 c-3 -11 -5 -23
-5 -26 -3 -14 -21 28 -21 49 0 20 2 21 15 11 8 -7 13 -22 11 -34z m-54 -28
c-17 -17 -25 -3 -17 29 l7 28 11 -23 c7 -16 7 -26 -1 -34z m-42 11 c0 -10 -7
-19 -15 -19 -15 0 -21 31 -9 43 11 10 24 -3 24 -24z m-104 5 c-9 -8 -16 -24
-16 -34 0 -10 -4 -22 -10 -25 -13 -8 -13 16 0 49 5 14 17 26 25 26 15 0 15 -1
1 -16z m13344 -18 c0 -14 -4 -28 -10 -31 -6 -4 -10 7 -10 24 0 17 5 31 10 31
6 0 10 -11 10 -24z m-13406 -2 c10 -26 7 -42 -9 -48 -12 -4 -15 3 -15 29 0 36
13 47 24 19z m13366 9 c0 -10 -32 -43 -42 -43 -14 0 -9 22 10 36 19 15 32 18
32 7z m-13250 -24 c0 -5 -4 -9 -10 -9 -5 0 -10 7 -10 16 0 8 5 12 10 9 6 -3
10 -10 10 -16z m13165 13 c9 -6 10 -17 6 -47 -2 -14 -31 26 -31 42 0 14 10 17
25 5z m-13385 -38 c0 -21 -4 -33 -10 -29 -5 3 -10 19 -10 36 0 16 5 29 10 29
6 0 10 -16 10 -36z m56 4 c3 -11 3 -22 0 -25 -9 -10 -36 18 -36 38 0 24 27 14
36 -13z m-178 8 c-10 -7 -18 -25 -18 -39 0 -14 -4 -29 -10 -32 -6 -4 -10 8
-10 29 0 23 6 39 18 45 25 15 40 13 20 -3z m85 -15 c18 -37 11 -46 -15 -21
-12 11 -18 26 -15 34 9 22 13 20 30 -13z m13329 -1 c3 -20 0 -30 -9 -30 -8 0
-13 12 -13 30 0 17 4 30 9 30 5 0 11 -13 13 -30z m58 16 c0 -16 -18 -31 -27
-22 -8 8 5 36 17 36 5 0 10 -6 10 -14z m-13430 -54 c-14 -5 -16 -3 -24 28 l-7
25 21 -25 c14 -15 18 -26 10 -28z m-130 18 c6 -11 9 -20 8 -20 -2 0 -11 9 -21
20 -9 11 -13 20 -7 20 5 0 14 -9 20 -20z m-37 -17 c6 -30 -1 -53 -14 -53 -5 0
-9 18 -9 40 0 45 15 54 23 13z m-103 -28 c0 -36 -13 -47 -24 -19 -5 14 9 54
19 54 3 0 5 -16 5 -35z m55 7 c0 -31 -19 -28 -23 4 -3 18 0 25 10 22 7 -3 13
-14 13 -26z m-105 -19 l-1 -38 -14 25 c-19 33 -19 50 0 50 11 0 15 -11 15 -37z
m-220 7 c0 -5 -4 -10 -10 -10 -5 0 -10 -18 -10 -40 0 -22 -4 -40 -10 -40 -13
0 -13 56 0 81 11 20 30 26 30 9z m114 -15 c16 -24 14 -45 -4 -45 -6 0 -30 52
-30 66 0 13 20 0 34 -21z m56 0 c0 -14 -4 -25 -10 -25 -5 0 -10 11 -10 25 0
14 5 25 10 25 6 0 10 -11 10 -25z m9318 -2 c-8 -10 -20 -27 -26 -38 -11 -19
-11 -18 -12 8 0 19 7 30 23 37 31 12 32 12 15 -7z m-9416 -28 c4 -16 1 -25 -8
-25 -15 0 -28 35 -19 50 9 15 22 4 27 -25z m-52 -15 c-15 -28 -24 -19 -16 16
5 19 10 24 17 17 8 -8 7 -18 -1 -33z m9410 19 c0 -18 -2 -19 -15 -9 -8 7 -15
16 -15 21 0 5 7 9 15 9 9 0 15 -9 15 -21z m100 1 c0 -11 -7 -20 -15 -20 -13 0
-13 3 -3 20 7 11 14 20 15 20 2 0 3 -9 3 -20z m-150 -17 c0 -21 -3 -24 -9 -14
-5 8 -7 20 -4 28 8 21 13 15 13 -14z m3986 -29 c-3 -8 -10 -14 -16 -14 -14 0
-13 33 3 49 10 10 13 9 15 -4 2 -9 1 -23 -2 -31z m-57 2 c-15 -33 -29 -34 -29
-2 0 15 7 26 18 28 24 6 24 4 11 -26z m-58 -9 c-13 -34 -28 -41 -34 -16 -4 15
0 23 14 26 10 3 19 10 19 16 0 6 2 8 5 5 3 -3 1 -17 -4 -31z m-51 5 c0 -10 -6
-27 -14 -37 -13 -18 -14 -18 -21 4 -4 13 -2 28 5 36 17 20 30 19 30 -3z m-60
-33 c0 -10 -4 -19 -9 -19 -12 0 -23 29 -15 41 8 14 24 0 24 -22z m-472 -99
c-2 -12 -6 -19 -10 -18 -4 2 -13 -5 -21 -16 -13 -17 -14 -17 -30 8 -21 31 -21
36 -1 36 10 0 14 -6 10 -15 -3 -9 0 -15 10 -15 9 0 18 9 21 20 7 26 25 26 21
0z m-88 -43 c0 -20 -25 1 -28 24 -2 23 -2 23 13 5 8 -11 15 -24 15 -29z m-90
23 c0 -5 -5 -10 -11 -10 -7 0 -9 -10 -7 -25 6 -28 -16 -36 -26 -9 -10 25 -7
34 9 34 8 0 15 5 15 10 0 6 5 10 10 10 6 0 10 -4 10 -10z m940 -4 c0 -7 -6
-19 -14 -25 -11 -9 -12 -6 -8 14 5 26 22 35 22 11z m-903 -30 c-4 -9 -11 -16
-17 -16 -11 0 -14 33 -3 43 11 11 26 -10 20 -27z m849 17 c11 -12 13 -18 5
-21 -19 -6 -41 6 -41 23 0 20 14 19 36 -2z m-976 -17 c0 -8 -4 -18 -10 -21 -5
-3 -10 3 -10 14 0 12 5 21 10 21 6 0 10 -6 10 -14z m840 4 c0 -5 -4 -10 -10
-10 -5 0 -10 5 -10 10 0 6 5 10 10 10 6 0 10 -4 10 -10z m87 -5 c7 -21 -4 -32
-19 -17 -9 9 -16 8 -30 -5 -21 -18 -31 -14 -22 10 5 14 16 18 57 26 4 0 10 -6
14 -14z m-3801 -80 c-4 -14 -11 -25 -16 -25 -5 0 -7 7 -5 15 3 8 7 22 10 31 9
26 18 8 11 -21z m-48 -7 c-2 -12 -8 -23 -14 -25 -17 -6 -27 29 -12 39 22 13
30 9 26 -14z m-58 -19 c0 -10 -4 -19 -10 -19 -5 0 -10 12 -10 26 0 14 4 23 10
19 6 -3 10 -15 10 -26z m2485 -29 c-5 -16 -9 -19 -15 -10 -4 7 -6 20 -5 29 2
9 4 18 4 21 1 2 6 -1 12 -7 6 -6 8 -21 4 -33z m772 18 c-3 -8 -6 -5 -6 6 -1
11 2 17 5 13 3 -3 4 -12 1 -19z m-829 -20 c-4 -27 -28 -36 -28 -10 0 20 8 32
22 32 5 0 8 -10 6 -22z m-60 -21 c4 -29 -12 -37 -22 -11 -10 26 -7 46 7 42 6
-3 13 -17 15 -31z m709 -14 c-3 -10 -5 -2 -5 17 0 19 2 27 5 18 2 -10 2 -26 0
-35z m-757 22 c0 -8 -6 -12 -14 -9 -8 3 -16 -3 -19 -15 -6 -25 -30 -28 -25 -4
2 10 14 23 28 30 31 16 30 16 30 -2z m824 1 c27 -13 27 -14 4 -19 -20 -6 -37
6 -38 26 0 10 4 9 34 -7z m-910 -28 c6 -28 2 -48 -8 -37 -8 10 -15 69 -7 69 5
0 11 -14 15 -32z m-494 -123 c0 -14 -4 -25 -10 -25 -5 0 -10 11 -10 25 0 14 5
25 10 25 6 0 10 -11 10 -25z m-105 -37 c4 -16 3 -28 -2 -28 -11 0 -33 57 -25
65 9 8 20 -7 27 -37z m55 17 c0 -28 -15 -34 -24 -9 -10 25 -7 34 9 34 9 0 15
-9 15 -25z m800 10 c0 -19 -43 -40 -64 -32 -18 7 -22 27 -5 27 5 0 7 -5 3 -12
-5 -8 -2 -9 10 -5 10 4 22 7 27 7 5 0 9 7 9 15 0 8 5 15 10 15 6 0 10 -7 10
-15z m1900 -5 c0 -11 -4 -20 -10 -20 -5 0 -10 9 -10 20 0 11 5 20 10 20 6 0
10 -9 10 -20z m-102 -18 c4 -25 -13 -30 -22 -6 -9 25 -7 36 7 32 6 -3 13 -14
15 -26z m52 15 c0 -7 -7 -22 -15 -33 -14 -18 -14 -18 -15 7 0 14 3 29 7 32 11
11 23 8 23 -6z m-2810 -32 c0 -19 -4 -35 -10 -35 -5 0 -10 16 -10 35 0 19 5
35 10 35 6 0 10 -16 10 -35z m60 26 c0 -17 -12 -41 -21 -41 -5 0 -9 11 -9 25
0 16 6 25 15 25 8 0 15 -4 15 -9z m804 -18 c17 -10 17 -10 -3 -16 -14 -3 -21
0 -21 9 0 8 -5 14 -11 14 -5 0 -7 5 -3 11 4 7 9 7 13 2 3 -5 14 -14 25 -20z
m1840 1 c4 -15 4 -29 1 -32 -8 -8 -25 19 -25 41 0 26 17 20 24 -9z m-1947 -4
c-3 -10 0 -21 7 -24 6 -2 3 -5 -8 -5 -13 -1 -16 4 -12 15 3 9 6 20 6 25 0 5 3
9 6 9 4 0 4 -9 1 -20z m1603 9 c0 -5 -5 -7 -11 -4 -19 12 -49 -26 -49 -62 0
-25 5 -36 22 -42 18 -6 19 -9 5 -14 -43 -16 -65 75 -27 113 21 21 60 27 60 9z
m292 -14 c12 -26 4 -46 -11 -29 -5 5 -12 19 -16 32 -9 31 12 29 27 -3z m-61
-38 c-11 -11 -25 28 -15 45 5 7 10 3 16 -12 5 -14 5 -27 -1 -33z m-82 3 c6
-18 6 -30 0 -30 -8 0 -13 14 -10 33 0 4 -3 7 -9 7 -5 0 -10 5 -10 10 0 21 19
8 29 -20z m39 5 c1 -14 -2 -25 -7 -25 -12 0 -19 21 -13 38 7 20 17 14 20 -13z
m-88 -20 c0 -7 6 -15 13 -18 6 -2 9 -8 5 -12 -14 -15 -38 5 -38 30 0 15 4 24
10 20 6 -3 10 -12 10 -20z m-3870 -10 c0 -8 0 -18 1 -22 0 -4 -3 -9 -8 -10 -4
-2 -8 8 -8 22 0 14 3 25 8 25 4 0 7 -7 7 -15z m-47 -11 c9 -10 -4 -34 -19 -34
-8 0 -14 9 -14 20 0 19 19 27 33 14z m-57 -28 c10 -11 11 -17 3 -22 -6 -3 -15
0 -20 7 -18 29 -7 39 17 15z m934 -46 c0 -16 -4 -30 -8 -30 -9 0 -13 27 -6 48
6 22 14 13 14 -18z m830 15 c0 -8 -2 -15 -4 -15 -2 0 -6 7 -10 15 -3 8 -1 15
4 15 6 0 10 -7 10 -15z m-64 -5 c12 11 18 11 31 -2 14 -14 10 -17 -36 -27 -29
-6 -64 -11 -79 -11 -25 0 -25 1 -9 18 16 15 19 15 27 2 8 -12 11 -11 16 8 5
18 9 20 20 11 11 -9 18 -8 30 1z m1942 -2 c-5 -13 -54 -29 -63 -20 -7 7 34 31
53 32 8 0 12 -5 10 -12z m-98 -24 c0 -14 -21 -19 -33 -7 -9 9 13 34 24 27 5
-3 9 -12 9 -20z m-2747 9 c3 -5 0 -19 -5 -33 -7 -18 -11 -21 -17 -11 -5 7 -6
22 -4 32 5 19 18 25 26 12z m95 -10 c-5 -26 -38 -29 -38 -4 0 15 6 21 21 21
14 0 19 -5 17 -17z m681 -22 c-16 -5 -33 15 -24 30 6 9 12 7 22 -7 9 -13 10
-20 2 -23z m-849 18 c0 -5 -4 -8 -9 -4 -13 8 -22 -10 -15 -29 8 -20 24 -21 24
-2 0 8 7 16 15 20 10 3 15 -1 15 -13 0 -19 -18 -31 -46 -31 -20 0 -30 50 -13
61 19 12 29 11 29 -2z m2700 -8 c0 -20 -17 -37 -27 -28 -7 8 7 47 18 47 5 0 9
-9 9 -19z m60 12 c0 -17 -19 -35 -29 -29 -18 12 -12 36 9 36 11 0 20 -3 20 -7z
m-2650 -29 c0 -8 -4 -14 -10 -14 -5 0 -10 9 -10 21 0 11 5 17 10 14 6 -3 10
-13 10 -21z m2472 -24 c-6 -15 -11 -19 -16 -12 -10 17 4 56 15 45 6 -6 6 -19
1 -33z m63 20 c0 -7 -6 -15 -12 -17 -8 -3 -13 4 -13 17 0 13 5 20 13 18 6 -3
12 -11 12 -18z m-107 -28 c2 -15 -2 -22 -12 -22 -11 0 -16 9 -16 26 0 31 23
28 28 -4z m-257 -1 c-29 -22 -21 -47 10 -30 18 9 20 8 17 -8 -2 -11 -13 -19
-30 -21 -23 -3 -29 2 -34 24 -7 29 14 54 45 54 12 0 9 -6 -8 -19z m209 5 c0
-22 -11 -46 -21 -46 -10 0 -12 43 -2 53 11 12 23 8 23 -7z m-60 -26 c0 -16 -4
-30 -10 -30 -5 0 -10 14 -10 30 0 17 5 30 10 30 6 0 10 -13 10 -30z m-130 -70
c-20 -13 -47 -13 -55 0 -4 6 9 10 32 10 28 0 34 -3 23 -10z m-2190 -32 c0 -15
-20 -48 -20 -34 0 5 -7 3 -15 -4 -13 -10 -19 -10 -35 5 -11 10 -20 23 -20 28
0 6 8 3 18 -6 25 -22 39 -21 45 3 6 22 27 28 27 8z m50 -2 c0 -8 -7 -16 -15
-20 -15 -5 -21 14 -8 27 11 12 23 8 23 -7z m-140 -52 c0 -14 -12 -19 -23 -8
-9 9 4 35 14 28 5 -3 9 -12 9 -20z m3650 -1138 c129 -42 449 -153 780 -269 85
-30 254 -89 375 -132 121 -42 240 -85 265 -95 l45 -19 5 -1308 c3 -719 5
-1309 5 -1309 0 -1 -10 -5 -22 -8 l-23 -7 -1 268 c-1 147 0 727 1 1288 2 845
0 1023 -12 1031 -7 6 -38 16 -68 24 -65 15 -232 72 -490 165 -240 87 -591 209
-853 296 l-208 70 -82 -25 c-45 -14 -230 -74 -412 -134 -630 -209 -1092 -352
-1159 -361 l-50 -6 -1 -1337 c-1 -736 -4 -1341 -8 -1344 -3 -4 -13 -4 -22 0
-14 5 -15 141 -15 1360 l1 1354 307 100 c1328 432 1399 454 1462 447 25 -2
106 -24 180 -49z m-179 -332 c11 -13 15 -85 18 -336 2 -183 -1 -324 -6 -329
-5 -5 -30 -12 -56 -15 l-47 -7 1 249 c1 279 9 415 29 438 16 21 44 20 61 0z
m-108 -199 c-2 -16 -21 -22 -128 -46 -55 -12 -104 -26 -109 -30 -4 -4 10 -33
33 -64 58 -83 82 -153 89 -262 l5 -92 -28 -11 c-35 -13 -40 -6 -49 62 -14 103
-74 239 -134 301 -39 40 -72 58 -161 87 l-54 17 99 7 c54 4 158 16 229 26 140
19 211 21 208 5z m401 -45 c83 -21 192 -44 241 -50 121 -14 155 -21 155 -29 0
-8 -260 -121 -278 -121 -6 0 -24 -28 -40 -63 -16 -34 -36 -68 -44 -75 -23 -19
-118 -28 -118 -12 0 18 125 181 155 203 14 10 25 24 25 31 0 19 -185 79 -312
100 -27 5 -38 12 -38 25 0 10 3 21 7 24 16 16 107 4 247 -33z m-14999 -290
c-11 -5 -27 -9 -35 -9 -9 0 -8 4 5 9 11 5 27 9 35 9 9 0 8 -4 -5 -9z m-98 -26
c-3 -3 -12 -4 -19 -1 -8 3 -5 6 6 6 11 1 17 -2 13 -5z m-40 -10 c-3 -3 -12 -4
-19 -1 -8 3 -5 6 6 6 11 1 17 -2 13 -5z m-120 -30 c-3 -3 -12 -4 -19 -1 -8 3
-5 6 6 6 11 1 17 -2 13 -5z m-40 -10 c-3 -3 -12 -4 -19 -1 -8 3 -5 6 6 6 11 1
17 -2 13 -5z m-44 -11 c-7 -2 -19 -2 -25 0 -7 3 -2 5 12 5 14 0 19 -2 13 -5z
m15027 -1426 c0 -667 -3 -1256 -7 -1310 -6 -92 -7 -98 -27 -95 l-21 3 -5 1225
c-3 674 -4 1262 -2 1307 3 75 5 82 25 85 12 2 25 2 30 0 4 -2 7 -549 7 -1215z
m776 441 c72 -75 100 -115 109 -151 4 -15 11 -30 16 -33 11 -6 179 64 267 112
34 19 68 34 75 34 16 0 20 -75 4 -88 -7 -5 -52 -26 -102 -47 -49 -20 -135 -57
-189 -81 -55 -24 -107 -44 -116 -44 -25 0 -30 -45 -30 -298 l0 -223 -67 -31
c-93 -42 -404 -168 -415 -168 -5 0 -8 21 -6 46 l3 46 55 17 c95 30 303 121
340 148 2 2 10 90 16 196 6 106 15 199 18 208 6 13 -28 4 -142 -36 -82 -29
-187 -69 -233 -89 -47 -20 -88 -36 -92 -36 -5 0 -7 21 -5 46 3 45 3 45 63 70
33 13 83 31 110 40 52 17 254 97 338 133 l47 21 -39 57 c-38 57 -83 140 -101
189 -17 43 13 28 76 -38z"/>
<path d="M1514 19398 c3 -29 6 -68 6 -85 l0 -33 64 0 c79 0 93 5 111 41 22 41
18 77 -10 104 -21 22 -33 25 -101 25 l-77 0 7 -52z"/>
<path d="M2030 19365 l0 -85 64 0 c103 0 142 50 101 129 -18 36 -32 41 -106
41 l-59 0 0 -85z"/>
<path d="M2734 19419 c3 -17 6 -61 6 -96 l0 -65 65 4 c83 5 115 31 115 94 0
35 -5 47 -31 68 -26 22 -40 26 -96 26 l-65 0 6 -31z"/>
<path d="M3533 19258 c-37 -41 -42 -60 -27 -103 26 -78 101 -100 155 -46 17
18 29 40 29 56 0 37 -25 92 -48 104 -35 19 -87 13 -109 -11z"/>
<path d="M4215 19290 c-26 -10 -48 -36 -43 -50 4 -14 118 -22 137 -11 17 11
-3 45 -36 60 -27 13 -31 13 -58 1z"/>
<path d="M2871 18324 c-31 -40 -29 -122 4 -158 29 -31 67 -34 112 -6 81 49 40
190 -56 190 -31 0 -44 -6 -60 -26z"/>
<path d="M4511 18334 c-57 -73 6 -219 85 -200 49 13 64 40 64 116 0 69 -1 71
-32 90 -47 29 -92 26 -117 -6z"/>
<path d="M1040 18336 l0 -176 58 0 c91 1 165 44 191 113 27 72 0 165 -62 211
-22 16 -47 22 -108 25 l-79 3 0 -176z"/>
<path d="M1608 18213 c-13 -3 -18 -15 -18 -38 0 -19 4 -36 8 -39 5 -3 34 -2
65 1 50 5 58 9 63 30 4 14 2 29 -4 35 -12 12 -87 19 -114 11z"/>
<path d="M3347 18350 c-44 -28 -61 -115 -30 -160 26 -38 45 -49 84 -50 43 0
84 35 94 81 8 35 -9 90 -35 114 -23 21 -89 29 -113 15z"/>
<path d="M3778 18199 c-20 -11 -24 -54 -7 -64 16 -11 97 4 113 20 8 8 12 24 9
35 -4 16 -13 20 -52 20 -25 0 -54 -5 -63 -11z"/>
<path d="M14660 17841 c0 -12 5 -21 10 -21 6 0 10 6 10 14 0 8 -4 18 -10 21
-5 3 -10 -3 -10 -14z"/>
<path d="M5830 14942 c0 -30 8 -45 20 -37 9 6 0 65 -11 65 -5 0 -9 -13 -9 -28z"/>
<path d="M5712 14948 c-13 -13 -16 -48 -4 -48 14 0 32 23 32 42 0 21 -11 23
-28 6z"/>
<path d="M5960 15012 c0 -14 11 -21 26 -15 8 3 11 9 8 14 -7 11 -34 12 -34 1z"/>
<path d="M5567 14924 c-10 -10 -9 -52 1 -58 15 -9 34 11 30 34 -3 24 -19 36
-31 24z"/>
<path d="M5064 14876 c-3 -7 -4 -35 -2 -62 3 -43 6 -49 23 -46 25 4 65 47 65
71 0 39 -73 71 -86 37z"/>
<path d="M5253 14853 c-16 -6 -17 -49 -1 -59 13 -8 51 33 45 50 -4 13 -26 17
-44 9z"/>
<path d="M4543 14722 c-17 -12 -35 -53 -29 -68 8 -21 43 -17 59 7 24 33 0 80
-30 61z"/>
<path d="M3942 14638 c3 -38 30 -48 63 -24 28 20 9 50 -34 54 -31 3 -32 2 -29
-30z"/>
<path d="M4252 14648 c-17 -17 -15 -65 4 -72 29 -11 55 12 52 47 -3 35 -33 48
-56 25z"/>
<path d="M3656 14598 c-16 -61 -1 -83 38 -55 25 19 18 71 -10 75 -15 2 -23 -4
-28 -20z"/>
<path d="M2230 14592 c0 -5 9 -17 20 -27 20 -18 20 -17 20 8 0 20 -5 27 -20
27 -11 0 -20 -4 -20 -8z"/>
<path d="M2228 14533 c6 -2 18 -2 25 0 6 3 1 5 -13 5 -14 0 -19 -2 -12 -5z"/>
<path d="M3434 14566 c-3 -8 -4 -25 -2 -38 2 -19 9 -23 32 -21 40 3 64 28 50
51 -14 22 -72 29 -80 8z"/>
<path d="M18227 9642 c-32 -36 -15 -82 30 -82 28 0 39 34 24 73 -12 31 -31 35
-54 9z"/>
<path d="M11410 9461 c0 -6 5 -13 10 -16 6 -3 10 1 10 9 0 9 -4 16 -10 16 -5
0 -10 -4 -10 -9z"/>
<path d="M13020 8915 c0 -19 2 -35 5 -35 10 0 24 40 19 54 -11 28 -24 17 -24
-19z"/>
<path d="M15430 8821 c-12 -23 -13 -51 -2 -51 15 0 32 24 32 47 0 28 -16 30
-30 4z"/>
<path d="M15017 8714 c-4 -4 -7 -16 -7 -26 0 -14 6 -19 23 -16 14 2 22 10 22
23 0 20 -25 32 -38 19z"/>
<path d="M15149 8729 c-7 -14 -7 -25 -1 -31 15 -15 52 9 52 32 0 27 -36 26
-51 -1z"/>
<path d="M14760 8629 c0 -38 24 -35 28 4 2 19 -1 27 -12 27 -11 0 -16 -10 -16
-31z"/>
<path d="M14486 8643 c-9 -10 -7 -123 2 -123 39 0 58 101 23 119 -10 6 -21 7
-25 4z"/>
<path d="M14085 8470 c-7 -21 0 -40 16 -40 12 0 12 47 0 55 -5 3 -12 -4 -16
-15z"/>
<path d="M13867 8443 c-4 -3 -7 -19 -7 -35 0 -31 23 -38 54 -15 15 11 17 17 7
35 -11 21 -40 29 -54 15z"/>
<path d="M5835 8310 c-3 -5 3 -10 14 -10 10 0 27 -3 35 -6 12 -5 15 -2 10 10
-7 18 -49 22 -59 6z"/>
<path d="M5829 8258 c0 -13 -3 -17 -6 -10 -7 17 -43 15 -43 -3 0 -12 11 -15
45 -13 48 1 58 15 25 36 -18 11 -20 10 -21 -10z"/>
<path d="M5575 8198 c-34 -19 -47 -48 -21 -48 16 0 66 38 66 51 0 12 -20 11
-45 -3z"/>
<path d="M4227 7924 c-3 -4 -2 -15 4 -26 8 -14 7 -24 -3 -35 -11 -14 -11 -15
2 -11 8 2 16 14 18 26 4 24 -11 56 -21 46z"/>
<path d="M4121 7890 c0 -8 6 -24 14 -34 15 -19 15 -19 29 -1 8 11 19 16 30 12
10 -4 16 -1 16 8 0 22 -22 30 -32 11 -12 -21 -27 -20 -44 2 -11 14 -13 14 -13
2z"/>
<path d="M4038 7873 c-20 -23 -32 -63 -20 -63 6 0 19 18 30 40 20 42 16 52
-10 23z"/>
<path d="M4080 7850 c0 -13 7 -20 20 -20 18 0 19 3 10 20 -6 11 -15 20 -20 20
-6 0 -10 -9 -10 -20z"/>
<path d="M3967 7854 c-8 -8 3 -34 14 -34 5 0 9 9 9 20 0 19 -11 26 -23 14z"/>
<path d="M3846 7842 c-7 -12 22 -38 31 -28 4 3 0 14 -9 22 -9 10 -18 12 -22 6z"/>
<path d="M3917 7843 c-10 -10 -8 -53 2 -53 5 0 11 14 13 30 4 29 -1 37 -15 23z"/>
<path d="M3763 7798 c2 -27 -2 -33 -18 -33 -16 0 -20 6 -18 28 1 15 -2 25 -8
22 -5 -4 -9 -19 -9 -36 0 -25 4 -29 28 -29 40 0 54 13 50 45 -5 41 -26 44 -25
3z"/>
<path d="M3817 7822 c-11 -17 1 -52 19 -52 8 0 14 5 14 10 0 6 -4 10 -9 10 -5
0 -11 10 -13 23 -2 15 -5 18 -11 9z"/>
<path d="M3516 7783 c-10 -72 -11 -153 -1 -153 12 -1 23 64 24 138 1 60 -15
70 -23 15z"/>
<path d="M3659 7783 c4 -15 6 -35 3 -43 -3 -11 -2 -12 8 -4 14 14 10 66 -7 71
-9 3 -10 -4 -4 -24z"/>
<path d="M3372 7793 c-17 -7 -42 -57 -42 -86 0 -14 7 -30 15 -37 16 -13 65 -6
65 9 0 5 9 7 20 4 46 -12 9 46 -39 62 -29 9 -26 25 5 25 16 0 24 5 22 13 -5
13 -26 18 -46 10z m12 -79 c9 -3 16 -13 16 -21 0 -20 -34 -12 -38 10 -4 19 -1
20 22 11z"/>
<path d="M3618 7780 c-3 -44 -3 -50 7 -50 5 0 10 16 10 35 0 37 -14 49 -17 15z"/>
<path d="M3467 7784 c-8 -8 1 -24 14 -24 5 0 9 7 9 15 0 15 -12 20 -23 9z"/>
<path d="M19070 19653 c0 -9 76 -108 118 -155 l35 -39 259 3 c278 3 277 3 278
-48 0 -21 -3 -21 -110 -16 l-110 5 0 -127 0 -126 38 0 c21 0 64 -5 96 -11 32
-6 60 -8 63 -5 3 3 10 40 15 83 6 43 22 105 35 138 14 33 45 115 69 183 l44
122 -415 0 c-228 0 -415 -3 -415 -7z"/>
<path d="M19278 19133 c2 -142 6 -261 10 -265 10 -9 91 -39 125 -45 l27 -5 0
286 0 286 -82 0 -83 0 3 -257z"/>
<path d="M17824 17812 c-16 -12 -56 -73 -51 -78 3 -3 15 9 27 25 23 34 50 40
70 16 7 -8 17 -15 23 -15 12 0 -21 38 -43 50 -9 5 -20 6 -26 2z"/>
<path d="M15009 17198 c-1 -2 -3 -33 -4 -71 -3 -66 9 -97 36 -97 20 0 49 42
49 71 0 17 4 28 10 24 6 -3 10 -22 10 -41 0 -58 25 -36 28 26 l3 52 -38 -7
c-51 -9 -53 -11 -46 -45 3 -16 2 -37 -2 -47 -13 -32 -25 21 -20 82 5 45 3 55
-10 55 -8 0 -16 -1 -16 -2z"/>
<path d="M15182 17188 c-7 -7 -12 -36 -12 -65 0 -51 1 -53 28 -53 28 0 29 6
22 123 0 11 -25 8 -38 -5z"/>
<path d="M14922 17168 c7 -19 38 -22 38 -4 0 10 -9 16 -21 16 -12 0 -19 -5
-17 -12z"/>
<path d="M14686 17088 c-3 -18 -7 -49 -8 -68 -3 -30 -7 -35 -28 -35 -37 0 -41
41 -6 55 14 5 26 14 26 20 0 17 -40 11 -70 -10 -26 -19 -28 -23 -18 -51 13
-38 40 -48 89 -35 l39 10 0 73 c0 75 -15 99 -24 41z"/>
<path d="M14916 17112 c-3 -5 -8 -28 -12 -50 -6 -42 -6 -42 24 -42 38 0 60 28
54 70 -4 25 -9 30 -33 30 -15 0 -30 -4 -33 -8z m44 -39 c0 -15 -27 -29 -37
-20 -3 4 -3 12 0 20 7 18 37 18 37 0z"/>
<path d="M14517 17093 c-2 -5 -1 -39 2 -78 5 -61 8 -70 26 -70 18 0 20 6 17
60 -2 33 -6 68 -8 78 -5 17 -29 24 -37 10z"/>
<path d="M14772 17093 c-28 -6 -44 -35 -40 -76 3 -28 7 -32 34 -35 38 -4 50
10 57 71 7 50 6 51 -51 40z m18 -68 c0 -12 -7 -25 -15 -29 -11 -4 -15 2 -15
23 0 15 3 31 6 34 12 11 24 -3 24 -28z"/>
<path d="M14291 17033 c-40 -34 -45 -114 -9 -137 26 -16 72 4 76 33 l4 23 -31
-18 c-37 -22 -45 -15 -37 31 6 30 11 35 35 35 31 0 46 21 28 39 -16 16 -42 14
-66 -6z"/>
<path d="M14437 17033 c-62 -103 -62 -117 1 -108 62 9 72 20 65 73 -5 38 -8
42 -34 42 -15 0 -30 -3 -32 -7z m33 -27 c0 -15 -24 -66 -31 -66 -12 0 -11 27
1 51 9 16 30 27 30 15z"/>
<path d="M15945 16970 c-44 -10 -96 -22 -115 -27 l-35 -9 -2 -953 -1 -953 41
6 c23 3 81 14 130 23 l87 17 0 958 c0 760 -3 958 -12 957 -7 -1 -49 -9 -93
-19z"/>
<path d="M15466 16556 c-98 -19 -110 -24 -118 -46 -6 -15 -7 -325 -2 -785 4
-418 6 -768 6 -777 -1 -23 10 -22 138 5 l105 23 3 802 c2 646 0 802 -10 801
-7 -1 -62 -11 -122 -23z"/>
<path d="M17720 16495 c-7 -9 -8 -15 -2 -15 5 0 12 7 16 15 3 8 4 15 2 15 -2
0 -9 -7 -16 -15z"/>
<path d="M17630 16491 c0 -9 30 -24 36 -18 2 1 -6 8 -16 15 -11 7 -20 8 -20 3z"/>
<path d="M17530 16461 c0 -25 6 -27 13 -6 4 8 2 17 -3 20 -6 4 -10 -3 -10 -14z"/>
<path d="M17460 16463 c0 -4 5 -15 10 -23 8 -13 10 -13 10 2 0 9 -4 20 -10 23
-5 3 -10 3 -10 -2z"/>
<path d="M17355 16420 c-3 -5 -1 -10 4 -10 6 0 11 5 11 10 0 6 -2 10 -4 10 -3
0 -8 -4 -11 -10z"/>
<path d="M17680 15780 c0 -5 5 -10 11 -10 5 0 7 5 4 10 -3 6 -8 10 -11 10 -2
0 -4 -4 -4 -10z"/>
<path d="M17621 15764 c0 -11 3 -14 6 -6 3 7 2 16 -1 19 -3 4 -6 -2 -5 -13z"/>
<path d="M14992 15750 c-45 -10 -90 -21 -98 -24 -13 -5 -15 -59 -12 -445 2
-242 6 -442 9 -445 6 -6 139 16 212 35 l37 10 0 257 c0 141 -3 341 -7 445 l-6
187 -26 -1 c-14 -1 -63 -9 -109 -19z"/>
<path d="M17487 15753 c-4 -3 -7 -11 -7 -17 0 -6 5 -5 12 2 6 6 9 14 7 17 -3
3 -9 2 -12 -2z"/>
<path d="M17540 15746 c0 -9 5 -16 10 -16 6 0 10 4 10 9 0 6 -4 13 -10 16 -5
3 -10 -1 -10 -9z"/>
<path d="M17430 15731 c0 -5 5 -13 10 -16 6 -3 10 -2 10 4 0 5 -4 13 -10 16
-5 3 -10 2 -10 -4z"/>
<path d="M17376 15715 c-3 -8 -1 -15 4 -15 6 0 10 7 10 15 0 8 -2 15 -4 15 -2
0 -6 -7 -10 -15z"/>
<path d="M16350 15666 l-105 -21 0 -258 c0 -143 3 -261 7 -263 7 -4 98 12 198
34 l35 8 3 262 c2 245 1 262 -15 261 -10 -1 -65 -11 -123 -23z"/>
<path d="M17151 15654 c0 -11 3 -14 6 -6 3 7 2 16 -1 19 -3 4 -6 -2 -5 -13z"/>
<path d="M14565 15636 c-55 -12 -106 -25 -112 -29 -10 -6 -13 -95 -13 -390 0
-210 3 -405 6 -433 l6 -50 72 13 c39 7 95 18 124 24 l52 10 0 440 c0 412 -1
439 -17 438 -10 0 -63 -11 -118 -23z"/>
<path d="M16350 15026 c0 -2 8 -10 18 -17 15 -13 16 -12 3 4 -13 16 -21 21
-21 13z"/>
<path d="M17968 14198 c-5 -43 -2 -97 7 -94 6 2 9 12 7 22 -6 33 -5 48 3 67 4
10 3 17 -4 17 -6 0 -12 -6 -13 -12z"/>
<path d="M17915 14110 c-8 -13 15 -24 27 -12 6 6 4 11 -6 15 -8 3 -18 2 -21
-3z"/>
<path d="M15236 13513 c-3 -16 -5 -51 -5 -79 1 -49 2 -51 26 -46 18 3 22 9 17
21 -4 9 -8 42 -8 73 -1 62 -20 81 -30 31z"/>
<path d="M15320 13502 c-28 -13 -34 -22 -32 -42 4 -43 10 -50 42 -50 34 0 42
13 44 67 1 44 -9 48 -54 25z m40 -32 c0 -12 -28 -25 -36 -17 -9 9 6 27 22 27
8 0 14 -5 14 -10z"/>
<path d="M14997 13484 c-3 -3 -25 -7 -49 -8 -36 -1 -43 -4 -43 -21 0 -14 8
-21 28 -23 26 -3 27 -5 27 -62 0 -48 3 -58 15 -54 10 4 15 25 17 67 4 78 26
90 30 15 2 -29 8 -53 13 -53 16 0 19 127 3 136 -15 10 -32 11 -41 3z"/>
<path d="M15112 13470 c-27 -11 -44 -52 -36 -85 8 -31 31 -39 59 -21 12 8 32
16 46 18 21 3 24 9 27 51 l3 47 -38 -1 c-21 0 -48 -4 -61 -9z m42 -19 c3 -5
-4 -21 -15 -36 -28 -35 -50 -18 -25 19 17 27 31 33 40 17z"/>
<path d="M14666 13398 c-9 -36 -7 -148 3 -148 5 0 17 7 26 16 12 12 13 19 5
24 -8 5 -11 28 -8 65 3 59 -14 88 -26 43z"/>
<path d="M14805 13383 c-74 -16 -85 -24 -85 -57 0 -41 30 -60 75 -48 21 6 31
16 36 38 4 16 11 39 14 52 8 23 3 25 -40 15z m-11 -59 c9 -25 7 -34 -8 -34
-19 0 -29 17 -22 35 7 20 22 19 30 -1z"/>
<path d="M14269 13328 c-7 -13 -13 -45 -13 -71 -1 -54 14 -71 54 -61 36 8 50
23 50 51 l0 25 -32 -28 -33 -27 -3 22 c-7 47 6 71 39 71 24 0 30 4 27 18 -2
12 -14 18 -40 20 -30 3 -39 -1 -49 -20z"/>
<path d="M14553 13338 c-36 -9 -52 -52 -33 -87 12 -24 24 -26 68 -10 25 8 34
19 42 50 6 22 8 44 5 49 -7 11 -36 10 -82 -2z m47 -31 c0 -25 -17 -47 -37 -47
-18 0 -16 21 3 48 20 28 34 28 34 -1z"/>
<path d="M14418 13324 c-31 -16 -37 -38 -26 -81 9 -35 53 -72 67 -57 5 5 16
30 26 55 13 35 14 52 6 67 -14 26 -42 32 -73 16z m42 -51 c0 -45 -15 -59 -33
-33 -19 27 -11 60 14 60 14 0 19 -7 19 -27z"/>
<path d="M17407 12856 c-37 -7 -68 -15 -70 -17 -2 -2 -32 -69 -67 -149 -35
-80 -109 -233 -163 -340 l-100 -195 -5 -87 c-3 -61 -1 -88 6 -88 6 0 67 15
135 34 67 18 142 37 165 41 l42 7 0 -106 c0 -115 0 -115 56 -96 16 5 48 14 72
20 l42 11 0 109 0 110 40 0 c46 0 53 14 48 96 l-3 49 -45 0 -45 0 -3 308 c-2
284 -4 307 -20 306 -9 -1 -47 -7 -85 -13z m-71 -632 c-2 -6 -33 -16 -68 -23
-34 -7 -71 -14 -80 -17 -11 -3 -18 0 -18 8 0 7 37 94 82 192 l83 179 3 -164
c1 -90 1 -168 -2 -175z"/>
<path d="M15066 12508 c-9 -146 -10 -193 -3 -205 4 -6 26 -13 51 -15 131 -15
241 -122 281 -273 20 -79 20 -250 -1 -334 -54 -219 -242 -414 -437 -452 -131
-26 -268 43 -349 176 -53 87 -63 131 -63 270 0 116 3 138 27 207 31 88 96 201
148 257 37 40 154 121 176 121 18 0 20 14 12 93 -4 40 -7 102 -7 140 -1 37 -3
67 -6 67 -14 0 -75 -37 -125 -75 -220 -170 -376 -455 -411 -751 -32 -273 78
-556 262 -675 142 -91 326 -92 489 -2 203 111 362 303 442 533 87 251 65 558
-54 758 -75 125 -202 216 -337 242 -93 17 -88 22 -95 -82z"/>
<path d="M16415 12570 c-11 -5 -36 -9 -56 -9 -20 -1 -41 -7 -46 -13 -5 -7 -42
-86 -82 -176 -40 -89 -108 -237 -152 -328 l-79 -166 0 -84 c0 -65 3 -86 15
-90 8 -3 63 8 122 24 60 17 125 34 146 38 l37 6 0 -107 c0 -88 3 -106 14 -102
8 3 41 11 75 18 l60 11 3 101 3 101 48 15 47 15 0 64 0 65 -45 -5 -45 -6 0
319 0 319 -22 -1 c-13 0 -32 -4 -43 -9z m-109 -646 c-5 -13 -154 -49 -163 -40
-9 8 62 188 134 341 l28 60 3 -175 c1 -96 0 -180 -2 -186z"/>
<path d="M15100 11892 c-26 -8 -60 -45 -60 -64 0 -26 15 -22 35 9 l18 27 9
-23 c10 -29 32 -22 36 11 3 28 -15 48 -38 40z"/>
<path d="M14938 11859 c-16 -11 -28 -29 -28 -40 0 -25 12 -24 28 1 17 28 44
26 40 -2 -2 -17 -13 -25 -40 -32 -26 -7 -42 -18 -54 -41 -17 -31 -16 -34 2
-66 33 -56 86 -52 120 8 22 38 22 39 3 62 -21 26 -24 52 -8 68 6 6 9 21 7 34
-4 31 -35 35 -70 8z m32 -123 c20 -25 8 -61 -21 -64 -36 -4 -55 21 -41 53 13
28 43 33 62 11z"/>
<path d="M14812 11813 c-39 -56 -64 -115 -53 -126 7 -7 17 -5 31 8 21 19 29 8
9 -12 -15 -15 -4 -43 15 -43 22 0 40 74 24 99 -9 15 -9 25 0 46 25 55 7 75
-26 28z"/>
<path d="M15062 11784 c-34 -23 -28 -45 10 -42 28 3 34 -1 36 -20 4 -27 -23
-40 -49 -24 -25 16 -29 15 -29 -6 0 -46 57 -56 95 -17 34 33 33 77 -1 104 -32
25 -33 25 -62 5z"/>
<path d="M17500 11635 c0 -8 4 -15 9 -15 5 0 11 7 15 15 3 9 0 15 -9 15 -8 0
-15 -7 -15 -15z"/>
<path d="M17468 11600 c20 -35 37 -40 28 -7 -3 12 -6 25 -6 30 0 4 -9 7 -20 7
-18 0 -18 -1 -2 -30z"/>
<path d="M17420 11584 c0 -21 4 -33 10 -29 6 3 10 19 10 36 0 16 -4 29 -10 29
-5 0 -10 -16 -10 -36z"/>
<path d="M17369 11603 c-1 -5 -2 -17 -3 -28 0 -11 -9 -21 -20 -23 -16 -3 -18
0 -12 23 5 20 3 26 -6 23 -20 -7 -22 -57 -4 -64 25 -10 66 23 66 51 0 22 -18
37 -21 18z"/>
<path d="M17260 11560 c0 -16 5 -30 10 -30 6 0 10 14 10 30 0 17 -4 30 -10 30
-5 0 -10 -13 -10 -30z"/>
<path d="M16506 11372 c-2 -4 4 -9 15 -9 10 -1 19 2 19 8 0 11 -27 12 -34 1z"/>
<path d="M16457 11354 c-3 -4 -2 -15 4 -25 7 -14 20 -19 52 -18 l42 2 -40 6
c-30 4 -40 10 -39 24 2 17 -7 22 -19 11z"/>
<path d="M16380 11335 c0 -8 5 -15 11 -15 6 0 9 -7 6 -14 -4 -10 -1 -13 9 -9
15 6 17 13 8 37 -8 20 -34 21 -34 1z"/>
<path d="M16320 11305 c0 -18 5 -25 19 -25 17 0 18 3 8 25 -15 32 -27 32 -27
0z"/>
<path d="M16268 11314 c-5 -4 -8 -19 -8 -33 0 -18 3 -22 11 -14 6 6 9 21 7 33
-1 12 -6 18 -10 14z"/>
<path d="M16182 11298 c-16 -16 -15 -28 3 -28 8 0 15 9 15 20 0 23 -2 24 -18
8z"/>
<path d="M16110 11250 c0 -5 9 -10 20 -10 11 0 20 5 20 10 0 6 -9 10 -20 10
-11 0 -20 -4 -20 -10z"/>
<path d="M12058 7813 c-8 -10 -22 -31 -32 -48 l-17 -30 29 33 c36 40 53 40 77
0 10 -18 20 -27 23 -20 4 12 -45 82 -58 82 -4 0 -14 -8 -22 -17z"/>
<path d="M9888 7284 c-9 -9 -10 -109 -2 -141 8 -30 34 -30 34 0 0 26 43 71 78
82 12 3 22 13 22 21 0 11 -6 13 -22 8 -36 -11 -76 -33 -85 -46 -5 -8 -10 5
-13 35 -3 27 -8 45 -12 41z"/>
<path d="M9810 7235 c-9 -11 -22 -14 -47 -9 l-35 7 7 -49 c10 -78 15 -95 25
-89 6 3 10 26 10 49 0 44 19 74 39 61 7 -4 7 -12 -1 -25 -18 -29 8 -72 41 -68
30 4 41 28 12 28 -15 0 -21 6 -21 23 0 13 5 28 11 34 8 8 8 17 0 32 -14 25
-24 26 -41 6z"/>
<path d="M9470 7191 c-5 -11 -10 -31 -10 -45 0 -63 -27 -75 -36 -15 -7 44 -25
59 -49 39 -11 -9 -15 -33 -15 -81 0 -66 1 -69 24 -69 14 0 28 5 32 11 4 7 20
9 39 6 58 -9 69 8 60 96 -7 79 -22 99 -45 58z m16 -128 c-10 -10 -19 5 -10 18
6 11 8 11 12 0 2 -7 1 -15 -2 -18z m-76 -4 c0 -6 -4 -7 -10 -4 -5 3 -10 11
-10 16 0 6 5 7 10 4 6 -3 10 -11 10 -16z"/>
<path d="M9686 7184 c-12 -30 -7 -106 7 -102 16 6 27 118 11 118 -7 0 -15 -7
-18 -16z"/>
<path d="M9962 7170 c-50 -31 -24 -54 33 -28 25 11 35 48 13 48 -7 0 -28 -9
-46 -20z"/>
<path d="M9572 7168 c-38 -19 -45 -99 -9 -106 54 -11 111 53 87 97 -12 23 -41
26 -78 9z m48 -37 c0 -25 -27 -48 -41 -34 -8 8 -7 17 0 32 14 26 41 28 41 2z"/>
<path d="M8786 7068 c-18 -26 -21 -54 -5 -63 17 -11 24 4 11 25 -9 15 -8 22 4
35 9 9 14 18 11 21 -3 3 -12 -5 -21 -18z"/>
<path d="M8773 6973 c-24 -9 -13 -23 18 -23 27 0 30 2 19 15 -13 16 -17 17
-37 8z"/>
<path d="M10466 6853 c-14 -137 -13 -146 16 -154 42 -11 117 -67 149 -112 68
-93 79 -265 26 -382 -41 -87 -100 -158 -175 -209 -152 -104 -308 -72 -386 78
-30 58 -31 64 -32 190 0 72 -4 145 -8 163 -4 18 -3 34 3 37 5 3 8 35 6 71 -2
36 0 63 4 60 5 -2 11 8 14 23 6 32 0 43 -9 16 -4 -10 -15 -30 -24 -44 -22 -34
-67 -151 -85 -225 -18 -72 -21 -221 -6 -288 28 -119 114 -237 207 -283 98 -48
234 -31 349 44 221 142 334 477 260 764 -42 159 -146 275 -271 302 l-32 7 -6
-58z m-415 -300 c-12 -20 -14 -14 -5 12 4 9 9 14 11 11 3 -2 0 -13 -6 -23z
m-20 -60 c-12 -20 -14 -14 -5 12 4 9 9 14 11 11 3 -2 0 -13 -6 -23z"/>
<path d="M11352 6763 c-37 -7 -192 -331 -192 -401 0 -12 11 -14 58 -9 31 4 67
10 80 13 20 6 22 3 22 -40 0 -44 1 -46 28 -46 42 0 50 11 54 65 3 43 6 50 26
53 13 2 22 10 22 20 0 9 3 26 6 38 5 18 2 20 -25 16 l-31 -4 6 138 c3 77 7
145 10 152 3 12 -17 14 -64 5z m-13 -205 c-2 -82 -10 -101 -47 -109 -18 -4
-34 -4 -36 0 -5 9 66 161 75 161 5 0 9 -24 8 -52z"/>
<path d="M10498 6408 c-16 -6 -31 -21 -37 -40 -14 -39 -15 -36 11 -40 30 -4
37 -38 9 -38 -25 0 -27 -13 -5 -31 14 -11 19 -10 35 10 25 31 24 56 -3 81
l-23 21 22 5 c22 6 38 30 25 37 -4 3 -19 0 -34 -5z"/>
<path d="M10080 6400 c-8 -5 -12 -12 -9 -15 4 -3 12 1 19 10 14 17 11 19 -10
5z"/>
<path d="M10358 6373 c-23 -28 -29 -52 -16 -72 9 -15 17 -17 40 -11 24 7 28 6
28 -10 0 -11 -10 -25 -22 -31 -18 -9 -24 -8 -34 6 -7 9 -17 14 -23 11 -6 -4
-16 2 -23 14 -8 12 -23 20 -40 20 -19 0 -28 5 -28 16 0 11 8 15 28 12 21 -2
27 1 27 17 0 29 -26 29 -58 -1 -22 -20 -25 -29 -17 -39 8 -10 8 -19 0 -34 -8
-16 -7 -26 6 -46 22 -33 54 -29 72 8 l14 28 25 -25 c31 -31 47 -32 73 -6 21
21 26 55 10 80 -5 9 -5 19 1 27 14 16 -6 53 -30 53 -10 0 -25 -8 -33 -17z m37
-48 c-26 -19 -35 -19 -35 3 0 30 21 45 39 27 13 -13 13 -16 -4 -30z m-101 -70
c-2 -13 -45 -35 -56 -29 -4 3 -3 14 3 25 11 21 55 24 53 4z"/>
<path d="M6115 6350 c3 -5 8 -10 11 -10 2 0 4 5 4 10 0 6 -5 10 -11 10 -5 0
-7 -4 -4 -10z"/>
<path d="M6052 6329 c2 -7 10 -15 17 -17 8 -3 12 1 9 9 -2 7 -10 15 -17 17 -8
3 -12 -1 -9 -9z"/>
<path d="M6219 6299 c-24 -24 -21 -41 11 -49 33 -8 38 -30 6 -30 -29 0 -35
-17 -10 -27 21 -8 84 26 84 44 0 8 -13 20 -30 26 -34 13 -41 37 -11 37 11 0
23 5 26 10 12 20 -55 10 -76 -11z"/>
<path d="M6131 6291 c-10 -6 -12 -19 -6 -47 8 -47 21 -64 46 -64 23 0 24 16 3
37 -11 11 -14 26 -9 50 6 34 -5 42 -34 24z"/>
<path d="M6050 6283 c-14 -3 -31 -9 -37 -15 -7 -6 -23 -8 -36 -4 -14 3 -35 -2
-55 -14 -34 -21 -42 -40 -17 -40 21 0 19 -37 -4 -49 -25 -14 -29 -7 -37 60 -5
46 -10 59 -24 59 -12 0 -19 -13 -26 -47 l-9 -48 -18 38 c-10 20 -21 37 -26 37
-14 0 -59 -55 -68 -85 l-10 -30 -23 48 c-15 32 -28 47 -39 45 -23 -5 -30 -168
-6 -168 11 0 15 12 15 53 l0 52 22 -42 c25 -49 43 -54 60 -18 12 27 28 33 28
11 0 -21 15 -28 44 -20 19 4 26 15 32 47 l8 42 6 -35 c5 -34 6 -35 44 -32 60
5 74 17 82 67 3 25 11 45 16 45 6 0 7 -11 4 -24 -7 -26 1 -56 14 -56 5 0 10
19 12 42 2 31 8 44 21 46 14 3 17 -4 17 -42 0 -39 3 -46 20 -46 13 0 20 7 20
19 0 10 3 39 6 65 4 25 3 45 -2 45 -5 -1 -20 -4 -34 -6z"/>
<path d="M5437 6163 c-8 -18 -9 -27 -1 -30 7 -2 9 -22 6 -53 l-5 -50 36 0 c37
0 53 12 42 30 -5 8 -11 7 -21 -1 -15 -12 -17 -8 -14 31 1 14 11 32 22 41 26
20 15 41 -18 33 -19 -5 -23 -3 -18 10 10 27 -16 18 -29 -11z"/>
<path d="M5157 6133 c-10 -78 -30 -169 -43 -195 -18 -35 -18 -68 1 -68 13 0
55 115 55 152 0 28 73 73 106 66 15 -3 10 -9 -22 -25 -49 -26 -67 -46 -62 -70
5 -26 43 -28 89 -4 22 12 53 21 69 21 35 0 44 12 42 58 -1 20 4 42 10 49 21
26 -5 35 -53 19 -24 -9 -57 -16 -74 -16 -16 0 -44 -9 -62 -19 -17 -11 -34 -17
-37 -14 -3 3 -3 23 0 45 4 23 3 38 -4 38 -5 0 -12 -17 -15 -37z m197 -59 c-10
-14 -39 -36 -66 -50 -55 -28 -66 -16 -13 14 19 12 40 30 47 41 7 12 21 21 31
21 16 0 17 -1 1 -26z"/>
<path d="M11490 6080 c0 -5 5 -10 10 -10 6 0 10 5 10 10 0 6 -4 10 -10 10 -5
0 -10 -4 -10 -10z"/>
<path d="M4812 6073 c-23 -3 -36 -11 -41 -26 -8 -22 2 -143 13 -154 13 -14 36
9 36 36 0 24 7 34 30 46 17 9 30 20 30 25 0 25 18 6 29 -30 19 -63 31 -62 77
10 25 40 29 42 32 22 2 -12 15 -30 29 -39 25 -16 26 -16 44 6 11 13 19 36 19
52 0 62 -87 56 -142 -9 l-26 -31 -5 28 c-4 20 -18 35 -47 50 -22 11 -42 20
-43 19 -1 0 -17 -3 -35 -5z m67 -42 c11 -7 10 -11 -7 -20 -43 -23 -86 -6 -44
18 21 13 33 13 51 2z m192 -34 c-7 -7 -12 -5 -17 7 -4 11 -1 21 7 27 17 11 26
-18 10 -34z"/>
<path d="M11426 6055 c-3 -9 0 -15 9 -15 8 0 15 7 15 15 0 8 -4 15 -9 15 -5 0
-11 -7 -15 -15z"/>
<path d="M11360 6046 c0 -9 7 -16 16 -16 17 0 14 22 -4 28 -7 2 -12 -3 -12
-12z"/>
<path d="M11286 6034 c-9 -22 -8 -24 9 -24 8 0 15 9 15 20 0 24 -15 27 -24 4z"/>
<path d="M4627 6001 c-6 -26 -10 -29 -63 -36 -106 -13 -114 -22 -98 -104 9
-43 30 -33 26 12 -2 20 1 44 6 54 9 15 11 14 17 -12 13 -59 17 -65 35 -65 34
0 50 12 50 39 0 36 11 71 21 71 5 0 9 -18 9 -40 0 -34 4 -42 26 -50 14 -6 30
-10 35 -10 15 0 10 30 -6 36 -20 8 -26 34 -16 70 9 34 -2 64 -23 64 -8 0 -16
-13 -19 -29z m-51 -96 c-4 -14 -11 -23 -16 -20 -11 7 -13 48 -3 58 13 14 26
-12 19 -38z"/>
<path d="M11216 6015 c-4 -10 1 -15 14 -15 13 0 18 5 14 15 -4 8 -10 15 -14
15 -4 0 -10 -7 -14 -15z"/>
<path d="M11170 6000 c0 -5 5 -10 11 -10 5 0 7 5 4 10 -3 6 -8 10 -11 10 -2 0
-4 -4 -4 -10z"/>
<path d="M8320 5948 c-26 -43 -34 -88 -26 -146 8 -61 34 -96 74 -100 59 -6
100 75 88 178 -9 77 -27 100 -76 100 -35 0 -43 -5 -60 -32z m86 -34 c7 -26 -1
-119 -12 -149 -9 -22 -36 -15 -52 15 -19 36 -10 129 13 146 28 21 44 17 51
-12z"/>
<path d="M4272 5943 c2 -10 10 -18 18 -18 8 0 16 8 18 18 2 12 -3 17 -18 17
-15 0 -20 -5 -18 -17z"/>
<path d="M8138 5939 c-40 -15 -58 -64 -58 -161 0 -70 3 -88 18 -101 31 -28 80
-21 116 16 32 31 33 33 31 117 -1 47 -3 91 -4 98 -1 10 -62 44 -73 41 -2 0
-15 -5 -30 -10z m62 -78 c0 -45 -9 -54 -45 -45 -43 11 -26 84 20 84 22 0 25
-4 25 -39z m3 -83 c15 -40 -47 -94 -78 -68 -16 13 -19 37 -9 64 7 20 79 22 87
4z"/>
<path d="M4364 5920 c-21 -8 -44 -56 -44 -90 0 -26 43 -33 84 -14 46 22 60 69
30 98 -17 18 -38 19 -70 6z m52 -35 c8 -20 -13 -45 -37 -45 -13 0 -17 5 -12
18 15 41 39 54 49 27z"/>
<path d="M4276 5898 c-3 -7 -7 -50 -10 -96 -7 -83 -6 -83 16 -80 20 3 23 8 21
48 -1 25 -3 64 -3 87 0 41 -16 67 -24 41z"/>
<path d="M4007 5893 c-4 -3 -7 -42 -7 -85 0 -63 3 -78 15 -78 9 0 15 9 15 23
0 27 17 47 42 47 22 0 51 54 43 80 -5 16 -16 20 -54 20 -26 0 -51 -3 -54 -7z
m73 -38 c0 -8 -9 -19 -20 -25 -17 -9 -20 -8 -20 8 0 10 3 22 7 25 12 12 33 7
33 -8z"/>
<path d="M4157 5878 c-9 -7 -19 -27 -23 -44 -7 -36 15 -65 45 -57 56 15 85 94
39 107 -33 8 -42 7 -61 -6z m47 -24 c7 -17 -10 -54 -24 -54 -11 0 -13 30 -4
54 8 20 20 20 28 0z"/>
<path d="M7904 5876 c-37 -16 -41 -22 -49 -65 -10 -56 1 -74 40 -67 27 5 36 3
49 -15 12 -18 13 -27 2 -53 -15 -38 -43 -45 -62 -17 -19 26 -34 27 -34 1 0
-24 37 -60 62 -60 9 0 33 14 53 31 28 25 35 38 35 69 0 21 -7 43 -15 50 -17
14 -20 46 -5 55 18 11 11 53 -12 69 -27 19 -25 19 -64 2z m56 -42 c0 -27 -20
-54 -40 -54 -15 0 -20 7 -20 28 0 35 6 42 37 42 14 0 23 -6 23 -16z"/>
<path d="M7616 5809 c-21 -16 -26 -29 -26 -64 0 -71 5 -76 61 -69 47 6 49 6
49 -17 0 -55 -60 -91 -89 -55 -9 10 -23 13 -48 9 -46 -8 -53 4 -53 99 0 75 -6
94 -26 80 -14 -10 -154 -219 -154 -230 0 -5 7 -15 15 -22 13 -10 19 -10 33 4
10 8 33 19 50 22 32 6 32 6 32 -35 0 -57 26 -55 69 5 24 35 36 44 49 38 9 -4
29 -9 45 -12 34 -5 41 -16 27 -42 -9 -16 -8 -20 5 -20 8 0 16 6 16 13 1 6 2
17 3 23 0 6 16 24 34 39 l34 28 -4 93 c-2 73 -7 96 -22 113 -24 27 -66 27
-100 0z m78 -45 c12 -30 6 -42 -26 -53 -36 -13 -52 0 -41 34 11 36 56 49 67
19z m-228 -96 c-3 -13 -6 -29 -6 -36 0 -12 -49 -37 -57 -28 -3 2 1 15 7 28 28
53 68 79 56 36z m41 -120 c-3 -7 -5 -2 -5 12 0 14 2 19 5 13 2 -7 2 -19 0 -25z"/>
<path d="M7225 5708 c-39 -21 -65 -52 -65 -75 0 -34 27 -70 61 -82 35 -12 37
-34 7 -55 -28 -20 -38 -20 -38 -1 0 18 -5 18 -31 5 -10 -6 -19 -17 -19 -24 0
-15 50 -36 86 -36 22 0 73 49 75 73 5 51 -12 71 -73 88 -21 5 -38 14 -38 19 0
13 38 32 53 27 39 -14 64 43 28 63 -23 12 -21 12 -46 -2z"/>
<path d="M7784 5593 c-4 -15 -13 -36 -21 -45 -11 -13 -12 -21 -3 -37 11 -22
27 -26 48 -12 9 5 12 25 10 61 -3 59 -23 78 -34 33z"/>
<path d="M5132 5373 l-32 -4 2 -306 3 -307 70 -12 c39 -6 83 -17 99 -23 86
-34 157 -136 175 -253 12 -75 7 -135 -20 -229 -51 -179 -250 -359 -395 -359
-152 0 -268 111 -295 280 -31 203 54 411 211 518 80 55 78 42 79 401 l1 264
-32 -7 c-66 -13 -253 -114 -335 -180 -294 -238 -457 -579 -479 -1001 -6 -113
-5 -128 25 -246 35 -142 69 -231 114 -304 33 -54 107 -146 147 -183 47 -43
160 -113 227 -140 62 -24 80 -26 208 -27 155 0 230 16 370 80 231 105 470 348
579 587 118 260 163 566 118 793 -40 201 -113 346 -237 470 -96 96 -161 136
-279 169 -71 21 -107 26 -190 24 -55 0 -116 -3 -134 -5z"/>
<path d="M8355 5350 c-29 -11 -41 -29 -49 -72 -6 -33 -4 -38 11 -38 11 0 23
12 30 30 13 34 59 52 74 29 19 -30 10 -48 -26 -55 -38 -7 -81 -49 -91 -91 -9
-35 19 -91 50 -99 29 -7 81 18 97 48 7 12 12 66 12 126 0 91 -3 107 -19 119
-20 14 -58 16 -89 3z m75 -182 c0 -36 -24 -68 -51 -68 -29 0 -39 30 -24 68 12
26 20 32 45 32 27 0 30 -3 30 -32z"/>
<path d="M8121 5284 c-34 -24 -51 -75 -51 -152 0 -110 41 -146 119 -104 54 29
73 74 67 156 -4 52 -10 74 -27 92 -27 28 -74 32 -108 8z m64 -66 c0 -26 4 -50
8 -54 12 -13 8 -59 -9 -82 -11 -16 -24 -22 -42 -20 -24 3 -27 7 -26 38 2 50
19 143 28 158 4 7 15 12 24 10 13 -3 17 -15 17 -50z"/>
<path d="M7886 5224 c-28 -16 -28 -17 -22 -82 8 -74 13 -85 27 -59 6 9 17 17
26 17 9 0 29 14 45 32 27 31 34 60 22 92 -8 21 -60 20 -98 0z m69 -24 c9 -15
-18 -64 -38 -68 -13 -3 -17 4 -17 31 0 18 3 37 7 40 10 10 41 8 48 -3z"/>
<path d="M7629 5165 c-27 -14 -59 -69 -59 -100 0 -24 15 -15 42 25 13 19 34
36 46 38 21 3 23 0 20 -35 -3 -35 -6 -39 -41 -47 -47 -12 -43 -31 8 -32 45 0
53 -15 30 -50 -13 -20 -23 -24 -53 -22 -31 3 -37 0 -37 -17 0 -43 102 -24 133
25 8 14 9 27 2 45 -6 15 -7 50 -4 80 9 77 0 105 -34 105 -15 -1 -39 -7 -53
-15z"/>
<path d="M7426 5130 c-34 -11 -66 -38 -66 -57 0 -18 14 -16 57 7 44 23 63 25
63 7 0 -7 -27 -65 -60 -128 -33 -63 -60 -120 -60 -127 0 -9 12 -6 40 8 21 11
47 20 57 20 10 0 34 5 54 10 41 11 55 39 34 67 -13 17 -14 17 -37 -3 -26 -24
-68 -40 -68 -26 0 5 13 25 28 45 31 39 68 147 59 171 -7 18 -53 20 -101 6z"/>
<path d="M7208 5094 c-34 -18 -48 -43 -48 -87 0 -28 7 -40 34 -61 19 -14 46
-31 60 -37 35 -16 33 -44 -5 -59 -34 -14 -49 -4 -49 33 0 14 -4 16 -19 8 -46
-25 -37 -69 21 -94 41 -17 42 -17 75 5 59 41 63 109 7 139 -27 14 -32 29 -9
29 8 0 15 7 15 15 0 11 -12 15 -46 15 -41 0 -45 2 -42 23 3 20 8 22 51 19 55
-3 71 16 42 48 -21 24 -50 25 -87 4z"/>
<path d="M11689 5097 c-78 -29 -166 -115 -204 -199 -93 -203 -61 -432 73 -523
75 -51 195 -25 305 68 103 85 151 202 145 350 -3 74 -8 103 -29 147 -60 125
-188 195 -290 157z m137 -96 c77 -35 114 -116 114 -249 0 -98 -32 -167 -102
-223 -59 -47 -114 -63 -189 -56 -66 6 -87 17 -120 65 -22 32 -24 45 -24 146 0
99 3 117 26 166 66 139 186 200 295 151z"/>
<path d="M11769 4753 c-16 -4 -32 -68 -22 -85 8 -15 53 -8 73 12 45 45 13 90
-51 73z m39 -36 c3 -22 -1 -27 -17 -27 -21 0 -26 15 -15 45 9 23 29 13 32 -18z"/>
<path d="M11636 4738 c-3 -7 -9 -28 -15 -45 -12 -38 -2 -48 37 -38 36 9 52 23
52 46 0 26 -8 24 -32 -7 -26 -33 -48 -17 -24 17 9 13 16 27 16 31 0 13 -30 9
-34 -4z"/>
<path d="M7960 5061 c0 -11 -12 -29 -27 -41 l-28 -21 -16 20 c-16 20 -16 20
-29 -4 -11 -20 -11 -27 0 -40 19 -23 57 -18 101 13 44 30 56 56 39 77 -18 21
-40 18 -40 -4z"/>
<path d="M10640 5032 l-85 -17 -3 -689 c-1 -380 2 -694 6 -698 8 -8 125 12
172 30 l25 10 4 691 c3 670 3 691 -15 690 -11 0 -57 -8 -104 -17z"/>
<path d="M7760 4941 c0 -22 -4 -43 -10 -46 -17 -10 -11 -35 8 -35 28 0 53 34
59 79 6 40 5 41 -26 41 -29 0 -31 -2 -31 -39z"/>
<path d="M8391 4672 c-47 -44 -63 -72 -43 -72 5 0 17 9 27 20 10 11 22 20 26
20 4 0 11 -50 14 -111 7 -105 9 -110 29 -107 14 2 22 12 25 28 5 41 -10 270
-19 270 -4 0 -31 -22 -59 -48z"/>
<path d="M8165 4638 c-35 -31 -48 -91 -29 -136 11 -26 18 -33 31 -27 10 3 30
9 46 12 24 5 27 3 27 -20 0 -14 -7 -33 -17 -42 -16 -16 -27 -16 -82 1 l-24 7
19 -26 c33 -45 78 -48 122 -7 17 16 22 32 22 69 0 26 5 62 11 80 28 81 -62
144 -126 89z m75 -39 c15 -27 -9 -65 -45 -71 -32 -7 -40 8 -25 48 18 47 52 59
70 23z"/>
<path d="M7939 4589 c-37 -37 -48 -78 -37 -139 14 -74 27 -99 61 -116 27 -15
29 -14 69 26 l41 40 -8 72 c-3 40 -13 84 -20 99 -23 44 -72 52 -106 18z m69
-31 c7 -7 12 -21 12 -33 0 -16 -9 -23 -45 -31 -43 -10 -45 -10 -45 13 0 25 32
63 53 63 7 0 18 -5 25 -12z m32 -110 c0 -55 -86 -92 -110 -47 -16 29 -6 47 32
58 58 16 78 14 78 -11z"/>
<path d="M7640 4521 c-34 -34 -46 -74 -34 -110 8 -21 19 -28 62 -36 l53 -10
-21 -28 c-26 -33 -62 -35 -83 -4 l-15 22 -22 -22 -23 -21 39 -26 c35 -22 44
-24 76 -16 20 6 50 26 66 44 27 31 29 40 30 116 2 104 -6 120 -59 120 -31 0
-47 -7 -69 -29z m84 -19 c2 -4 -1 -29 -7 -55 -10 -43 -13 -48 -36 -45 -35 4
-42 57 -12 87 21 21 46 27 55 13z"/>
<path d="M10285 4523 c-44 -8 -84 -18 -89 -23 -9 -9 -10 -940 -1 -949 5 -4
100 14 158 30 l37 10 0 474 c0 374 -3 475 -12 474 -7 -1 -49 -8 -93 -16z"/>
<path d="M7488 4458 c-19 -29 -56 -77 -81 -107 -52 -60 -60 -91 -25 -91 12 0
30 -8 41 -17 18 -17 19 -17 28 0 6 9 17 17 26 17 14 0 14 -2 -1 -19 -15 -16
-15 -19 -1 -24 22 -9 41 1 54 29 13 29 15 264 2 264 -4 0 -24 -24 -43 -52z
m-25 -128 c-27 -41 -37 -47 -47 -31 -8 12 42 71 59 71 10 0 6 -13 -12 -40z
m37 -19 c0 -12 -20 -25 -27 -18 -7 7 6 27 18 27 5 0 9 -4 9 -9z"/>
<path d="M9868 4493 l-78 -15 0 -509 c0 -280 1 -509 3 -509 1 0 34 7 72 15 39
9 85 18 103 22 l32 6 0 503 0 504 -27 -1 c-16 -1 -63 -8 -105 -16z"/>
<path d="M7213 4438 c-25 -12 -43 -56 -43 -102 0 -47 12 -59 41 -46 30 14 79
-2 79 -25 0 -9 -16 -23 -36 -31 -32 -14 -38 -14 -53 0 -27 24 -43 20 -39 -11
4 -39 46 -53 93 -30 40 19 48 8 10 -13 -29 -15 -32 -28 -10 -37 33 -12 81 67
77 126 -3 40 -40 71 -84 71 -65 0 -45 50 24 59 34 5 43 10 43 26 0 16 -7 20
-40 22 -22 1 -50 -3 -62 -9z"/>
<path d="M7806 4339 c-29 -23 -34 -39 -12 -39 26 0 29 -21 5 -46 -17 -18 -20
-27 -11 -36 22 -22 72 45 72 95 0 40 -23 51 -54 26z"/>
<path d="M11288 4153 c18 -2 45 -2 60 0 15 2 0 4 -33 4 -33 0 -45 -2 -27 -4z"/>
<path d="M8745 3854 c-5 -1 -22 -5 -36 -8 -16 -3 -29 -15 -33 -28 -6 -21 -7
-21 -17 -5 -5 9 -17 17 -24 17 -17 0 -19 -9 -6 -29 7 -11 18 -11 67 0 33 7 63
16 68 20 10 9 -5 37 -19 33z"/>
<path d="M8570 3810 c0 -11 5 -20 10 -20 6 0 10 9 10 20 0 11 -4 20 -10 20 -5
0 -10 -9 -10 -20z"/>
<path d="M8682 3612 c-13 -4 -23 -10 -23 -14 1 -5 1 -15 1 -23 0 -8 7 -15 15
-15 9 0 12 6 8 16 -7 19 15 36 40 28 9 -3 17 -1 17 5 0 12 -22 13 -58 3z"/>
<path d="M8610 3570 c0 -11 5 -20 10 -20 6 0 10 9 10 20 0 11 -4 20 -10 20 -5
0 -10 -9 -10 -20z"/>
<path d="M8460 3570 c-12 -8 -11 -10 8 -10 12 0 22 5 22 10 0 13 -11 13 -30 0z"/>
<path d="M8511 3553 c0 -25 1 -26 9 -8 12 27 12 35 0 35 -5 0 -10 -12 -9 -27z"/>
<path d="M8740 3570 c0 -5 5 -10 10 -10 6 0 10 5 10 10 0 6 -4 10 -10 10 -5 0
-10 -4 -10 -10z"/>
<path d="M8404 3542 c5 -14 -3 -20 -39 -30 -25 -7 -45 -16 -45 -22 0 -14 20
-12 50 5 14 8 39 15 55 15 17 0 37 5 45 11 11 8 7 9 -17 4 -29 -6 -33 -4 -33
14 0 12 -5 21 -11 21 -6 0 -8 -8 -5 -18z"/>
<path d="M10618 3513 c7 -3 16 -2 19 1 4 3 -2 6 -13 5 -11 0 -14 -3 -6 -6z"/>
<path d="M4206 3395 c-19 -15 -19 -15 2 -15 13 0 22 6 22 15 0 18 0 18 -24 0z"/>
<path d="M4135 3390 c-8 -14 13 -22 31 -12 14 8 14 10 -5 15 -11 3 -23 1 -26
-3z"/>
<path d="M6725 3370 c3 -5 8 -10 11 -10 2 0 4 5 4 10 0 6 -5 10 -11 10 -5 0
-7 -4 -4 -10z"/>
<path d="M6665 3360 c-3 -6 1 -7 9 -4 18 7 21 14 7 14 -6 0 -13 -4 -16 -10z"/>
<path d="M6625 3330 c-3 -5 -2 -10 4 -10 5 0 13 5 16 10 3 6 2 10 -4 10 -5 0
-13 -4 -16 -10z"/>
<path d="M6216 3243 c8 -39 -1 -42 -26 -10 -17 20 -19 21 -26 4 -11 -31 9 -40
67 -30 49 7 54 11 57 36 2 15 -1 27 -7 27 -6 0 -11 -6 -11 -14 0 -23 -23 -24
-42 -2 -17 21 -18 21 -12 -11z"/>
<path d="M6120 3215 c0 -22 4 -34 10 -30 6 3 10 17 10 30 0 13 -4 27 -10 30
-6 4 -10 -8 -10 -30z"/>
<path d="M6735 3100 c-3 -5 1 -10 9 -10 9 0 16 5 16 10 0 6 -4 10 -9 10 -6 0
-13 -4 -16 -10z"/>
<path d="M6793 3091 c0 -11 5 -18 9 -15 4 3 5 11 1 19 -7 21 -12 19 -10 -4z"/>
<path d="M6580 3080 c0 -5 5 -10 11 -10 5 0 7 5 4 10 -3 6 -8 10 -11 10 -2 0
-4 -4 -4 -10z"/>
<path d="M6620 3050 c0 -5 5 -10 11 -10 5 0 7 5 4 10 -3 6 -8 10 -11 10 -2 0
-4 -4 -4 -10z"/>
<path d="M6070 2910 c0 -5 5 -10 11 -10 5 0 7 5 4 10 -3 6 -8 10 -11 10 -2 0
-4 -4 -4 -10z"/>
<path d="M6740 2860 c0 -11 5 -20 10 -20 6 0 10 9 10 20 0 11 -4 20 -10 20 -5
0 -10 -9 -10 -20z"/>
<path d="M6687 2863 c-4 -3 -7 -13 -7 -22 1 -13 3 -13 11 2 11 19 8 33 -4 20z"/>
<path d="M6630 2838 c0 -9 5 -20 11 -23 17 -11 18 -2 3 19 -12 17 -14 17 -14
4z"/>
<path d="M4118 2734 c-16 -8 -28 -21 -28 -29 0 -19 14 -19 30 0 7 8 25 15 41
15 19 0 29 5 29 15 0 19 -36 19 -72 -1z"/>
<path d="M4056 2732 c-3 -5 -10 -21 -15 -36 -8 -20 -7 -26 3 -26 8 0 16 14 19
33 5 34 3 44 -7 29z"/>
<path d="M6045 2681 c-3 -5 -1 -12 5 -16 5 -3 10 1 10 9 0 18 -6 21 -15 7z"/>
<path d="M4274 2524 c-4 -10 -9 -22 -11 -26 -2 -5 0 -8 5 -8 10 0 24 41 17 48
-3 3 -8 -4 -11 -14z"/>
<path d="M4150 2486 c0 -9 5 -16 10 -16 6 0 10 4 10 9 0 6 -4 13 -10 16 -5 3
-10 -1 -10 -9z"/>
<path d="M4030 2461 c0 -25 6 -27 13 -6 4 8 2 17 -3 20 -6 4 -10 -3 -10 -14z"/>
<path d="M4020 2419 c0 -5 5 -7 10 -4 6 3 10 8 10 11 0 2 -4 4 -10 4 -5 0 -10
-5 -10 -11z"/>
<path d="M4346 2295 c4 -8 8 -15 10 -15 2 0 4 7 4 15 0 8 -4 15 -10 15 -5 0
-7 -7 -4 -15z"/>
<path d="M4290 2284 c0 -3 7 -12 15 -20 16 -17 18 -14 9 10 -6 15 -24 23 -24
10z"/>
<path d="M4178 2245 c-6 -30 -3 -43 8 -33 3 4 4 19 2 35 l-3 28 -7 -30z"/>
<path d="M4021 2234 c0 -11 3 -14 6 -6 3 7 2 16 -1 19 -3 4 -6 -2 -5 -13z"/>
<path d="M4110 2225 c0 -14 4 -25 9 -25 4 0 6 11 3 25 -2 14 -6 25 -8 25 -2 0
-4 -11 -4 -25z"/>
<path d="M4225 2240 c3 -5 8 -10 11 -10 2 0 4 5 4 10 0 6 -5 10 -11 10 -5 0
-7 -4 -4 -10z"/>
<path d="M4060 2228 c0 -7 5 -20 10 -28 8 -12 10 -9 10 13 0 15 -4 27 -10 27
-5 0 -10 -6 -10 -12z"/>
</g>
</svg>
